<?xml version="1.0" encoding="UTF-8" standalone="no"?>
<svg
   xmlns:dc="http://purl.org/dc/elements/1.1/"
   xmlns:cc="http://creativecommons.org/ns#"
   xmlns:rdf="http://www.w3.org/1999/02/22-rdf-syntax-ns#"
   xmlns:svg="http://www.w3.org/2000/svg"
   xmlns="http://www.w3.org/2000/svg"
   xmlns:sodipodi="http://sodipodi.sourceforge.net/DTD/sodipodi-0.dtd"
   xmlns:inkscape="http://www.inkscape.org/namespaces/inkscape"
   width="70"
   height="29"
   viewBox="0 0 70 29"
   version="1.1"
   id="svg2"
   inkscape:version="0.48.3.1 r9886"
   sodipodi:docname="bitx.svg">
  <metadata
     id="metadata34">
    <rdf:RDF>
      <cc:Work
         rdf:about="">
        <dc:format>image/svg+xml</dc:format>
        <dc:type
           rdf:resource="http://purl.org/dc/dcmitype/StillImage" />
      </cc:Work>
    </rdf:RDF>
  </metadata>
  <defs
     id="defs32" />
  <sodipodi:namedview
     pagecolor="#ffffff"
     bordercolor="#666666"
     borderopacity="1"
     objecttolerance="10"
     gridtolerance="10"
     guidetolerance="10"
     inkscape:pageopacity="0"
     inkscape:pageshadow="2"
     inkscape:window-width="1366"
     inkscape:window-height="681"
     id="namedview30"
     showgrid="false"
     inkscape:zoom="5.7142857"
     inkscape:cx="35"
     inkscape:cy="14.15"
     inkscape:window-x="0"
     inkscape:window-y="27"
     inkscape:window-maximized="1"
     inkscape:current-layer="svg2" />
  <g
     style="fill:#216778;stroke:none"
     transform="translate(0,-0.87611556)"
     id="g4">
    <g
       transform="translate(-15,-16)"
       id="g6"
       style="fill:#216778">
      <g
         transform="translate(15,17)"
         id="g8"
         style="fill:#216778">
        <path
           d="m 26.577063,2.7184934 c 0,1.5700711 -1.238295,2.8423213 -2.765782,2.8423213 -1.526936,0 -2.765231,-1.2722502 -2.765231,-2.8423213 0,-1.5700711 1.238295,-2.84232122 2.765231,-2.84232122 1.527487,0 2.765782,1.27225012 2.765782,2.84232122"
           inkscape:connector-curvature="0"
           style="fill:#216778"
           id="path10" />
        <path
           d="m 10.42784,21.181635 c -0.8686795,0.917809 -2.0667625,1.375864 -3.5925971,1.375864 -0.3299548,0 -0.6527487,-0.01189 -0.9694833,-0.03624 -0.3167346,-0.02378 -0.6158422,-0.0838 -0.8984246,-0.180618 l 0,-6.807982 c 0,-1.375865 0.2991077,-2.3837 0.8984246,-3.023505 0.599317,-0.639806 1.3677427,-0.959708 2.3074805,-0.959708 1.2911755,0 2.2072269,0.452393 2.7481549,1.357746 0.539826,0.905353 0.809739,2.226863 0.809739,3.965095 0,1.955653 -0.434615,3.392101 -1.303294,4.309344 m 5.95461,-8.654359 C 16.005674,11.344485 15.488983,10.360431 14.831828,9.5756784 14.173571,8.7914922 13.392476,8.2060419 12.489093,7.8193277 11.58516,7.4337459 10.604109,7.2401057 9.547042,7.2401057 c -1.0565165,0 -1.9962543,0.2117586 -2.8181117,0.6335771 C 5.906522,8.2966338 5.3204253,8.8333909 4.967335,9.4850865 l 0,-9.60897094 -4.96750025284,0 0,25.90475744 C 0.44601741,25.9496 0.9390217,26.100776 1.4793985,26.233266 c 0.5403768,0.133057 1.1038889,0.241201 1.6910873,0.325565 0.5877493,0.08436 1.1683376,0.150609 1.7439683,0.199302 0.5750799,0.04813 1.1215159,0.07247 1.6387573,0.07247 1.6200287,0 3.0759062,-0.235539 4.3681836,-0.706051 1.291175,-0.470512 2.384047,-1.140892 3.275862,-2.010008 0.892365,-0.86855 1.573758,-1.924512 2.044177,-3.168452 0.468768,-1.242808 0.703977,-2.648681 0.703977,-4.218186 0,-1.617632 -0.188388,-3.017843 -0.562961,-4.200634"
           inkscape:connector-curvature="0"
           style="fill:#216778"
           id="path12" />
        <path
           d="m 23.221494,7.6746637 -1.858544,0 -1.755536,0 0,3.9107393 1.755536,0 0,14.810646 c 0.845544,0.144947 1.655834,0.21742 2.43087,0.21742 0.798171,0 1.620579,-0.07247 2.466123,-0.21742 l 0,-18.7213853 -3.038449,0 z"
           inkscape:connector-curvature="0"
           style="fill:#216778"
           id="path14" />
        <path
           d="m 41.619808,26.214921 c -1.080753,0.265548 -2.19621,0.398039 -3.34692,0.398039 -2.137821,0 -3.769969,-0.512411 -4.896993,-1.53893 -1.127575,-1.025388 -1.690536,-2.697375 -1.690536,-5.014829 l 0,-8.473741 -2.360362,0 0,-3.9107396 2.360362,0 0,-3.8841283 4.931695,-1.5836599 0,5.4677882 3.540817,0 0,3.9107396 -3.540817,0 0,7.350967 c 0,0.748516 0.05784,1.352651 0.17627,1.810706 0.116778,0.458622 0.28754,0.82099 0.510631,1.085971 0.222541,0.266114 0.498513,0.447297 0.827917,0.543551 0.328853,0.09682 0.716646,0.144947 1.162278,0.144947 0.352539,0 0.699019,-0.03001 1.03944,-0.09059 0.33987,-0.06002 0.639529,-0.114372 0.898976,-0.163065 l 0.387242,3.946976 z"
           inkscape:connector-curvature="0"
           style="fill:#216778"
           id="path16" />
        <g
           transform="translate(47,5)"
           id="g18"
           style="fill:#216778">
          <path
             d="m 20.551394,4.1349488 c -0.661012,0.332359 -1.435497,0.8181582 -2.284896,1.4217268 -0.73813,1.0910663 -1.651978,2.2902768 -2.696376,3.5393128 0.982153,1.0316156 1.894349,2.0513406 2.720062,3.0348286 3.416327,-4.0675764 5.345378,-7.4936493 4.519114,-8.3423823 -0.349785,-0.3601029 -1.151261,-0.21006 -2.257904,0.3465141"
             inkscape:connector-curvature="0"
             style="fill:#216778"
             id="path20" />
          <path
             d="M 7.5791561,9.0949692 C 6.5408174,7.8504628 5.6269693,6.6518186 4.8882891,5.5613184 4.0361353,4.955485 3.2588961,4.4679873 2.5967831,4.135062 1.4901399,3.5784879 0.68866366,3.4284451 0.33832764,3.7879817 -0.4873857,4.6372809 1.4422166,8.06392 4.8574419,12.131497 5.6837061,11.147442 6.5964526,10.127151 7.5791561,9.0949692"
             inkscape:connector-curvature="0"
             style="fill:#216778"
             id="path22" />
          <path
             d="m 19.353972,21.359246 c -0.323896,-0.681138 -0.793765,-1.476648 -1.382065,-2.351993 -2.096508,-1.499296 -4.608351,-3.699547 -7.048034,-6.207244 -0.119532,-0.122866 -0.236311,-0.246297 -0.354742,-0.369729 -0.9799495,1.033314 -1.8849843,2.053606 -2.7051892,3.036528 0.077669,0.08097 0.1520326,0.160801 0.2302523,0.241767 5.3442769,5.492701 10.5365209,9.062022 11.5968929,7.971522 0.350336,-0.359536 0.203812,-1.183357 -0.337115,-2.320851"
             inkscape:connector-curvature="0"
             style="fill:#216778"
             id="path24" />
          <path
             d="m 7.4678308,17.230802 c -0.8097389,0.674344 -1.5765121,1.267721 -2.2931585,1.779565 -0.5877493,0.873646 -1.0565165,1.66859 -1.3809629,2.349162 -0.5403768,1.136928 -0.6874518,1.960749 -0.336565,2.320851 0.7430869,0.76437 3.5231905,-0.773428 6.9582466,-3.648023 -1.0273222,-0.917243 -2.0237969,-1.871855 -2.9470094,-2.803819 -5.508e-4,5.66e-4 -5.508e-4,0.0011 -5.508e-4,0.0023"
             inkscape:connector-curvature="0"
             style="fill:#216778"
             id="path26" />
          <path
             d="M 15.053707,8.5550414 C 14.974937,8.4740749 14.897268,8.3982042 14.818497,8.3183701 17.04886,6.3519593 19.073758,4.877576 20.551118,4.1347223 21.657761,3.5787144 22.459238,3.4286716 22.809023,3.7882082 L 19.691253,0.5835193 C 18.865539,-0.26577988 15.531288,1.7176168 11.574584,5.2274872 7.6167787,1.7176168 4.2825273,-0.26577988 3.4568139,0.5835193 L 0.33849289,3.7882082 C 0.68882891,3.4286716 1.4903052,3.5787144 2.5963975,4.1347223 4.0743087,4.877576 6.0986559,6.3519593 8.3290184,8.3183701 8.2507987,8.3982042 8.1725791,8.4740749 8.0943594,8.5550414 2.7500826,14.048308 -0.72187948,19.385305 0.33849289,20.475238 l 3.11832101,3.205256 c -0.350336,-0.360103 -0.2038118,-1.183923 0.3371158,-2.320852 1.0994822,-2.310094 3.8371709,-5.919049 7.4182003,-9.599345 0.120634,-0.124564 0.241269,-0.245165 0.362454,-0.366898 0.120084,0.121733 0.240168,0.242334 0.360802,0.366898 3.581029,3.680296 6.319269,7.289251 7.418751,9.598779 0.540927,1.137495 0.686901,1.961315 0.337116,2.321418 l 3.11777,-3.205256 c 1.060923,-1.089933 -2.411039,-6.42693 -7.755316,-11.9201966"
             inkscape:connector-curvature="0"
             style="fill:#216778"
             id="path28" />
        </g>
      </g>
    </g>
  </g>
</svg>
