<?xml version="1.0" encoding="iso-8859-1"?>
<!-- Generator: Adobe Illustrator 16.0.0, SVG Export Plug-In . SVG Version: 6.00 Build 0)  -->
<!DOCTYPE svg PUBLIC "-//W3C//DTD SVG 1.1//EN" "http://www.w3.org/Graphics/SVG/1.1/DTD/svg11.dtd">
<svg version="1.1" id="Layer_1" xmlns="http://www.w3.org/2000/svg" xmlns:xlink="http://www.w3.org/1999/xlink" x="0px" y="0px"
	 width="63.264px" height="70.463px" viewBox="0 0 63.264 70.463" style="enable-background:new 0 0 63.264 70.463;"
	 xml:space="preserve">
<path style="fill:none;" d="M10.856,21.863c0,0.184-0.01,0.364-0.027,0.543l10.33,5.97v-3.955h5.636V22.18h3.682V10.586
	c-0.789-0.258-1.497-0.692-2.082-1.255L10.41,19.713C10.696,20.373,10.856,21.1,10.856,21.863z"/>
<path style="fill:none;" d="M53.828,25.511l-10.756,6.21c0.002,0.063,0.009,0.126,0.009,0.19c0,1.238-0.25,2.348-0.75,3.308
	c0.021,0.025,0.044,0.049,0.064,0.074c1.105,1.273,1.666,2.834,1.666,4.637c0,0.546-0.06,1.074-0.165,1.587l10.32,5.964
	c0.814-0.731,1.847-1.222,2.989-1.354V27.251C55.872,27.097,54.688,26.455,53.828,25.511z"/>
<path style="fill:none;" d="M9.049,47.481l12.11-6.991v-1.86h3.207l0.002-4.516l-1.173-0.678h-2.036V32.26L9.451,25.494
	c-0.629,0.696-1.432,1.229-2.343,1.527v19.334C7.835,46.593,8.492,46.981,9.049,47.481z"/>
<path style="fill:none;" d="M35.921,9.331c-0.584,0.563-1.292,0.996-2.081,1.254V22.18h4.581v2.961
	c1.144,0.438,2.067,1.043,2.751,1.804c0.395,0.453,0.72,0.928,0.992,1.419l10.275-5.933c-0.02-0.187-0.03-0.376-0.03-0.567
	c0-0.95,0.247-1.844,0.679-2.622L35.921,9.331z"/>
<path style="fill:none;" d="M52.409,51.514c0-0.386,0.042-0.763,0.119-1.126l-10.05-5.808c-0.127,0.164-0.257,0.327-0.398,0.485
	c-0.902,1.015-2.132,1.737-3.659,2.153v2.668H33.84v9.989c1.271,0.416,2.335,1.289,3,2.425l15.827-9.138
	C52.501,52.643,52.409,52.089,52.409,51.514z"/>
<path style="fill:none;" d="M27.477,62.302c0.665-1.137,1.729-2.01,3-2.426v-9.989h-3.682v-2.244h-5.636v-3.271l-10.422,6.017
	c0.077,0.363,0.119,0.739,0.119,1.125s-0.042,0.762-0.119,1.124L27.477,62.302z"/>
<path style="fill:#555555;" d="M36.331,41.069c0.559-0.276,0.841-0.815,0.841-1.629c0-0.81-0.295-1.345-0.89-1.603
	c-0.595-0.259-1.544-0.389-2.846-0.389h-2.306v4.035h2.684C34.93,41.484,35.77,41.348,36.331,41.069z"/>
<path style="fill:#555555;" d="M31.131,34.367h1.857c1.083,0,1.889-0.116,2.416-0.35c0.526-0.234,0.791-0.74,0.791-1.518
	c0-0.775-0.242-1.29-0.729-1.539c-0.485-0.252-1.303-0.379-2.455-0.379h-1.88V34.367z"/>
<path style="fill:#555555;" d="M60.568,46.832V26.546c1.609-0.943,2.695-2.686,2.695-4.683c0-2.992-2.435-5.428-5.429-5.428
	c-0.756,0-1.475,0.156-2.129,0.437L37.501,6.36c0.053-0.304,0.086-0.614,0.086-0.933C37.587,2.436,35.15,0,32.157,0
	c-2.992,0-5.427,2.436-5.427,5.428c0,0.318,0.033,0.628,0.086,0.932L8.118,17.155c-0.795-0.455-1.712-0.72-2.691-0.72
	C2.434,16.436,0,18.871,0,21.863c0,2.407,1.574,4.449,3.746,5.158v19.334C1.574,47.065,0,49.108,0,51.514
	c0,2.993,2.434,5.428,5.427,5.428c1.393,0,2.66-0.531,3.622-1.396l17.74,10.241c0.368,2.637,2.632,4.676,5.368,4.676
	c2.737,0,5.004-2.039,5.371-4.677L54.652,55.9c0.895,0.651,1.993,1.041,3.183,1.041c2.994,0,5.429-2.435,5.429-5.428
	C63.264,49.519,62.178,47.774,60.568,46.832z M57.835,53.816c-1.269,0-2.302-1.033-2.302-2.303s1.033-2.303,2.302-2.303
	c1.271,0,2.304,1.033,2.304,2.303S59.105,53.816,57.835,53.816z M34.462,65.035c0,1.27-1.034,2.303-2.305,2.303
	c-1.27,0-2.302-1.033-2.302-2.303c0-1.271,1.032-2.305,2.302-2.305C33.428,62.73,34.462,63.765,34.462,65.035z M5.427,53.816
	c-1.27,0-2.302-1.033-2.302-2.303s1.032-2.303,2.302-2.303c1.271,0,2.306,1.033,2.306,2.303S6.697,53.816,5.427,53.816z
	 M5.427,19.561c1.271,0,2.306,1.033,2.306,2.303c0,1.271-1.035,2.304-2.306,2.304c-1.27,0-2.302-1.033-2.302-2.304
	C3.125,20.594,4.157,19.561,5.427,19.561z M32.157,3.125c1.271,0,2.305,1.033,2.305,2.303c0,1.271-1.034,2.304-2.305,2.304
	c-1.27,0-2.302-1.033-2.302-2.304C29.855,4.158,30.888,3.125,32.157,3.125z M54.217,47.48l-10.32-5.964
	c0.105-0.513,0.165-1.041,0.165-1.587c0-1.803-0.561-3.363-1.666-4.637c-0.021-0.025-0.043-0.049-0.064-0.074
	c0.5-0.96,0.75-2.069,0.75-3.308c0-0.064-0.007-0.127-0.009-0.19l10.756-6.21c0.86,0.944,2.044,1.586,3.378,1.74v18.875
	C56.063,46.259,55.031,46.749,54.217,47.48z M31.564,44.789v2.244h-1.913v-2.244h-2.429h-3.209v-3.305h1.767
	c0.588,0,1.442-0.122,1.442-1.407v-8.089c0-1.281-0.854-1.406-1.442-1.406h-1.767v-3.307h3.209h2.429v-2.242h1.913v2.242h2.088
	v-2.242h1.914v2.336c0.561,0.068,1.076,0.182,1.543,0.332c0.858,0.285,1.508,0.67,1.941,1.152c0.783,0.901,1.178,1.922,1.178,3.058
	c0,1.369-0.443,2.388-1.328,3.058c-0.302,0.236-0.508,0.381-0.628,0.438c-0.115,0.06-0.326,0.154-0.626,0.291
	c1.088,0.232,1.949,0.722,2.593,1.465c0.645,0.743,0.967,1.668,0.967,2.768c0,1.221-0.418,2.299-1.254,3.233
	c-0.872,0.981-2.34,1.515-4.386,1.61v2.26h-1.914v-2.244H31.564z M57.835,19.561c1.271,0,2.304,1.033,2.304,2.303
	c0,1.271-1.033,2.304-2.304,2.304c-1.269,0-2.302-1.033-2.302-2.304C55.533,20.594,56.566,19.561,57.835,19.561z M52.439,22.431
	l-10.275,5.933c-0.272-0.491-0.598-0.966-0.992-1.419c-0.684-0.761-1.607-1.366-2.751-1.804V22.18H33.84V10.585
	c0.789-0.258,1.497-0.691,2.081-1.254l17.167,9.91c-0.432,0.778-0.679,1.672-0.679,2.622C52.409,22.055,52.42,22.244,52.439,22.431z
	 M30.477,10.586V22.18h-3.682v2.241h-5.636v3.955l-10.33-5.97c0.018-0.179,0.027-0.359,0.027-0.543c0-0.764-0.16-1.49-0.446-2.15
	L28.395,9.331C28.979,9.894,29.688,10.328,30.477,10.586z M9.451,25.494l11.708,6.766v1.177h2.036l1.173,0.678l-0.002,4.516h-3.207
	v1.86l-12.11,6.991c-0.557-0.5-1.214-0.889-1.94-1.126V27.021C8.02,26.724,8.822,26.19,9.451,25.494z M10.737,50.389l10.422-6.017
	v3.271h5.636v2.244h3.682v9.989c-1.271,0.416-2.335,1.289-3,2.426l-16.739-9.664c0.077-0.362,0.119-0.738,0.119-1.124
	S10.814,50.752,10.737,50.389z M33.84,59.876v-9.989h4.581v-2.668c1.527-0.416,2.757-1.139,3.659-2.153
	c0.142-0.158,0.271-0.321,0.398-0.485l10.05,5.808c-0.077,0.363-0.119,0.74-0.119,1.126c0,0.575,0.092,1.129,0.258,1.649
	L36.84,62.301C36.175,61.165,35.111,60.292,33.84,59.876z"/>
<g>
</g>
<g>
</g>
<g>
</g>
<g>
</g>
<g>
</g>
<g>
</g>
<g>
</g>
<g>
</g>
<g>
</g>
<g>
</g>
<g>
</g>
<g>
</g>
<g>
</g>
<g>
</g>
<g>
</g>
</svg>
