<?xml version="1.0" encoding="iso-8859-1"?>
<!-- Generator: Adobe Illustrator 16.0.0, SVG Export Plug-In . SVG Version: 6.00 Build 0)  -->
<!DOCTYPE svg PUBLIC "-//W3C//DTD SVG 1.1//EN" "http://www.w3.org/Graphics/SVG/1.1/DTD/svg11.dtd">
<svg version="1.1" id="Layer_1" xmlns="http://www.w3.org/2000/svg" xmlns:xlink="http://www.w3.org/1999/xlink" x="0px" y="0px"
	 width="107.521px" height="44.884px" viewBox="0 0 107.521 44.884" style="enable-background:new 0 0 107.521 44.884;"
	 xml:space="preserve">
<path style="fill:#555555;" d="M105.543,22.114c-0.024-0.029-0.05-0.06-0.075-0.088c0.592-1.141,0.891-2.458,0.891-3.928
	c0-2.184-0.758-4.163-2.268-5.9c-0.813-0.902-1.91-1.622-3.268-2.144V6.539H87.016v2.663h-6.693v10.707h3.809v1.568h-8.882
	C74.742,9.549,64.884,0,52.833,0c-0.032,0-0.064,0.002-0.097,0.002C52.729,0.002,52.722,0,52.715,0v0.003
	C40.683,0.065,30.867,9.643,30.413,21.58h-5.071c0.452-1.036,0.695-2.196,0.695-3.481c0-2.184-0.759-4.163-2.269-5.9
	c-0.813-0.902-1.91-1.622-3.268-2.144V6.539H6.693v2.663H0v10.707h3.809l-0.001,6.17H0v10.703h6.693v2.666h13.808v-3.17
	c1.814-0.494,3.275-1.353,4.346-2.557c1.562-1.747,2.353-3.8,2.353-6.098c0-1.145-0.195-2.204-0.572-3.176h3.859
	c1.015,11.39,10.569,20.355,22.202,20.43v0.004c0.019,0,0.036,0.002,0.054,0.002c0.011,0,0.021-0.003,0.031-0.003h0.001
	c0.011,0,0.021,0.003,0.031,0.003c0.019,0,0.036-0.002,0.055-0.002v-0.001c11.65-0.014,21.245-8.95,22.311-20.331h8.959v1.529
	h-3.808v10.703h6.693v2.666h13.808v-3.17c1.814-0.494,3.274-1.353,4.346-2.557c1.562-1.747,2.353-3.8,2.353-6.098
	C107.521,25.48,106.856,23.627,105.543,22.114z M22.319,31.462c-1.037,1.165-2.779,1.799-5.208,1.912v2.684h-2.274v-2.665h-2.478
	v2.665h-2.275v-2.665H7.201H3.389v-3.925h2.099c0.697,0,1.714-0.146,1.714-1.671v-9.607c0-1.521-1.017-1.669-1.714-1.669H3.389
	v-3.929h3.813h2.883V9.928h2.275v2.664h2.478V9.928h2.274v2.775c0.665,0.082,1.278,0.216,1.831,0.395
	c1.021,0.338,1.792,0.796,2.308,1.369c0.93,1.07,1.396,2.282,1.396,3.632c0,1.626-0.524,2.836-1.574,3.632
	c-0.359,0.279-0.605,0.451-0.746,0.519c-0.137,0.07-0.388,0.183-0.745,0.345c1.291,0.278,2.316,0.858,3.081,1.74
	c0.766,0.884,1.148,1.98,1.148,3.29C23.81,29.071,23.313,30.351,22.319,31.462z M46.275,4.073c-1.589,1.794-3.102,4.224-4.229,7.284
	c-2.013-0.125-3.719-0.262-4.987-0.377C39.351,7.837,42.55,5.407,46.275,4.073z M35.375,13.75c1.17,0.117,3.186,0.303,5.783,0.474
	c-0.534,2.14-0.864,4.544-0.936,7.203h-6.863C33.501,18.679,34.207,16.084,35.375,13.75z M33.404,24.344h6.842
	c0.153,2.611,0.616,4.938,1.245,6.989c-2.515,0.161-4.531,0.339-5.791,0.461C34.466,29.542,33.664,27.021,33.404,24.344z
	 M37.547,34.554c1.317-0.115,3.015-0.247,4.992-0.364c1.367,3.176,3.038,5.443,4.222,6.797C43.089,39.781,39.9,37.517,37.547,34.554
	z M51.375,41.283c-0.464-0.315-1.024-0.766-1.669-1.407c-0.803-0.798-2.545-2.754-4.039-5.847c1.782-0.075,3.704-0.13,5.708-0.148
	V41.283z M51.375,30.965c-2.445,0.022-4.768,0.098-6.874,0.199c-0.662-1.96-1.168-4.227-1.337-6.82h8.211V30.965z M51.375,21.427
	h-8.237c0.077-2.662,0.439-4.997,0.995-7.03c2.199,0.11,4.656,0.193,7.242,0.217V21.427z M51.375,11.697
	c-2.223-0.021-4.339-0.087-6.281-0.176c1.835-4.443,4.527-6.983,6.281-8.03V11.697z M68.621,11.001
	c-1.34,0.114-3.086,0.247-5.115,0.368c-1.143-3.106-2.682-5.559-4.296-7.362C63.021,5.33,66.292,7.796,68.621,11.001z M54.291,3.564
	c1.757,1.089,4.371,3.615,6.166,7.963c-1.931,0.086-4.011,0.149-6.166,0.17V3.564z M54.291,14.613
	c2.511-0.023,4.929-0.104,7.127-0.21c0.555,2.031,0.916,4.364,0.993,7.023h-8.12V14.613z M54.291,24.344h8.094
	c-0.169,2.59-0.674,4.855-1.335,6.814c-2.1-0.098-4.386-0.171-6.759-0.193V24.344z M54.291,41.198v-7.317
	c1.94,0.019,3.827,0.07,5.594,0.144c-1.496,3.098-3.242,5.057-4.046,5.855C55.247,40.469,54.731,40.889,54.291,41.198z
	 M58.736,41.049c1.187-1.349,2.891-3.643,4.278-6.87c1.991,0.113,3.736,0.242,5.117,0.356
	C65.741,37.553,62.487,39.855,58.736,41.049z M69.98,31.768c-1.361-0.124-3.42-0.294-5.919-0.447
	c0.627-2.047,1.088-4.37,1.241-6.977h6.958C72.002,27.011,71.207,29.522,69.98,31.768z M65.326,21.427
	c-0.071-2.654-0.399-5.054-0.933-7.189c2.555-0.161,4.619-0.337,5.911-0.458c1.158,2.326,1.859,4.911,2.001,7.647H65.326z
	 M102.641,31.462c-1.036,1.165-2.779,1.799-5.208,1.912v2.684h-2.273v-2.665h-2.479v2.665h-2.274v-2.665h-2.884h-3.811v-3.925h2.099
	c0.696,0,1.712-0.146,1.712-1.671v-9.607c0-1.521-1.016-1.669-1.712-1.669h-2.099v-3.929h3.811h2.884V9.928h2.274v2.664h2.479V9.928
	h2.273v2.775c0.667,0.082,1.279,0.216,1.832,0.395c1.021,0.338,1.791,0.796,2.308,1.369c0.929,1.07,1.396,2.282,1.396,3.632
	c0,1.626-0.524,2.836-1.574,3.632c-0.359,0.279-0.604,0.451-0.746,0.519c-0.137,0.07-0.388,0.183-0.746,0.345
	c1.292,0.278,2.317,0.858,3.083,1.74c0.765,0.884,1.146,1.98,1.146,3.29C104.131,29.071,103.635,30.351,102.641,31.462z"/>
<path style="fill:#555555;" d="M98.281,25.137c-0.703-0.307-1.832-0.461-3.378-0.461h-2.739v4.792h3.188
	c1.324,0,2.323-0.162,2.989-0.492c0.665-0.328,0.998-0.97,0.998-1.935C99.339,26.079,98.989,25.444,98.281,25.137z"/>
<path style="fill:#555555;" d="M97.239,20.601c0.627-0.28,0.939-0.879,0.939-1.804c0-0.92-0.288-1.53-0.866-1.827
	c-0.573-0.3-1.547-0.449-2.915-0.449h-2.233v4.494h2.207C95.656,21.015,96.614,20.878,97.239,20.601z"/>
<path style="fill:#555555;" d="M16.917,20.601c0.628-0.28,0.939-0.879,0.939-1.804c0-0.92-0.287-1.53-0.865-1.827
	c-0.576-0.3-1.547-0.449-2.916-0.449h-2.233v4.494h2.207C15.334,21.015,16.293,20.878,16.917,20.601z"/>
<path style="fill:#555555;" d="M17.959,25.137c-0.702-0.307-1.831-0.461-3.378-0.461h-2.739v4.792h3.187
	c1.325,0,2.324-0.162,2.99-0.492c0.664-0.328,0.998-0.97,0.998-1.935C19.017,26.079,18.667,25.444,17.959,25.137z"/>
<g>
</g>
<g>
</g>
<g>
</g>
<g>
</g>
<g>
</g>
<g>
</g>
<g>
</g>
<g>
</g>
<g>
</g>
<g>
</g>
<g>
</g>
<g>
</g>
<g>
</g>
<g>
</g>
<g>
</g>
</svg>
