<?xml version="1.0" encoding="UTF-8" standalone="no"?>
<!-- Created with Inkscape (http://www.inkscape.org/) -->

<svg
   xmlns:dc="http://purl.org/dc/elements/1.1/"
   xmlns:cc="http://creativecommons.org/ns#"
   xmlns:rdf="http://www.w3.org/1999/02/22-rdf-syntax-ns#"
   xmlns:svg="http://www.w3.org/2000/svg"
   xmlns="http://www.w3.org/2000/svg"
   version="1.1"
   width="100%"
   height="100%"
   viewBox="0 0 933.82 926.76"
   id="svg3361">
  <defs
     id="defs43">
    <clipPath
       id="clipPath3031">
      <path
         d="M 0,800 800,800 800,0 0,0 0,800 z"
         id="path3033" />
    </clipPath>
    <clipPath
       id="clipPath16">
      <path
         d="M 0,0 800,0 800,800 0,800 0,0 z"
         id="path18" />
    </clipPath>
    <radialGradient
       cx="0"
       cy="0"
       r="1"
       fx="0"
       fy="0"
       id="radialGradient24"
       gradientUnits="userSpaceOnUse"
       gradientTransform="matrix(513.93738,0,0,-513.93738,400,400)"
       spreadMethod="pad">
      <stop
         id="stop26"
         style="stop-color:#f6f6f6;stop-opacity:1"
         offset="0" />
      <stop
         id="stop28"
         style="stop-color:#dadada;stop-opacity:1"
         offset="1" />
    </radialGradient>
  </defs>
  <metadata
     id="metadata39">
    <rdf:RDF>
      <cc:Work>
        <dc:format>image/svg+xml</dc:format>
        <dc:type
           rdf:resource="http://purl.org/dc/dcmitype/StillImage" />
        <cc:license
           rdf:resource="http://creativecommons.org/licenses/publicdomain/" />
        <dc:publisher>
          <cc:Agent
             rdf:about="http://openclipart.org/">
            <dc:title>Openclipart</dc:title>
          </cc:Agent>
        </dc:publisher>
        <dc:title></dc:title>
        <dc:date>2010-07-21T08:57:15</dc:date>
        <dc:description>Community, clip art, clipart, crowd, group, man, men, people, svg, </dc:description>
        <dc:source>http://openclipart.org/detail/74185/community-by-russel-74185</dc:source>
        <dc:creator>
          <cc:Agent>
            <dc:title>russel</dc:title>
          </cc:Agent>
        </dc:creator>
        <dc:subject>
          <rdf:Bag>
            <rdf:li>Community</rdf:li>
            <rdf:li>clip art</rdf:li>
            <rdf:li>clipart</rdf:li>
            <rdf:li>crowd</rdf:li>
            <rdf:li>group</rdf:li>
            <rdf:li>man</rdf:li>
            <rdf:li>men</rdf:li>
            <rdf:li>people</rdf:li>
            <rdf:li>svg</rdf:li>
          </rdf:Bag>
        </dc:subject>
      </cc:Work>
      <cc:License
         rdf:about="http://creativecommons.org/licenses/publicdomain/">
        <cc:permits
           rdf:resource="http://creativecommons.org/ns#Reproduction" />
        <cc:permits
           rdf:resource="http://creativecommons.org/ns#Distribution" />
        <cc:permits
           rdf:resource="http://creativecommons.org/ns#DerivativeWorks" />
      </cc:License>
    </rdf:RDF>
  </metadata>
  <g
     transform="matrix(1.25,0,0,-1.25,-51.276745,923.91947)"
     id="g12">
    <g
       clip-path="url(#clipPath16)"
       id="g14">
      <g
         id="g20">
        <g
           id="g22">
          <path
             d="M 0,0 800,0 800,800 0,800 0,0 z"
             id="path30"
             style="fill:url(#radialGradient24);stroke:none" />
        </g>
      </g>
    </g>
  </g>
  <path
     d="m 432.77015,432.64542 c -5.4383,4.78927 -13.74424,12.3373 -22.02709,20.73347 0.16716,-1.73409 0.29672,-3.46818 0.48417,-5.19912 5.71791,-52.48002 26.91496,-101.28689 50.15538,-146.89044 22.19713,-43.5699 46.15515,-85.79354 62.66322,-132.50373 15.80775,-44.72391 26.22614,-107.170223 10.01493,-153.366502 -2.27678,-6.4792112 -10.21668,-5.293693 -10.84497,1.604826 -2.50154,27.676145 -0.58503,54.734357 -5.85621,82.284388 -4.82733,25.223178 -13.55113,49.604558 -23.78509,72.740508 -4.61985,10.43928 -9.63165,20.65151 -14.86821,30.73448 -7.34332,-10.73563 -17.62054,-22.20585 -23.26346,-28.25312 -25.81981,-139.509486 -115.17317,-126.459647 -226.4614,-43.2704 33.39943,3.47133 63.30302,24.87638 79.07327,49.42799 50.69432,78.99273 93.79454,36.92676 143.36775,9.83077 -1.08942,-1.28954 -2.36037,-2.68629 -3.81002,-4.30057 -0.86459,-0.98056 -1.91075,-1.92957 -2.9425,-2.97633 -1.02601,-1.05937 -2.10099,-2.15974 -3.31431,-3.22544 -1.18737,-1.08458 -2.38341,-2.25431 -3.69472,-3.37043 -1.30554,-1.10352 -2.66871,-2.2638 -4.05783,-3.45558 -1.36894,-1.22018 -2.89641,-2.30791 -4.40946,-3.46818 -1.55051,-1.12243 -3.00303,-2.42458 -4.63426,-3.55964 -3.27395,-2.23225 -6.52773,-4.69467 -10.06102,-6.87016 -1.74362,-1.11927 -3.49588,-2.25749 -5.25101,-3.39567 -1.75512,-1.14137 -3.63132,-2.09983 -5.44985,-3.15605 -1.79838,-1.07201 -3.62268,-2.13453 -5.41816,-3.1939 -1.84448,-0.97425 -3.68896,-1.95162 -5.51903,-2.91642 -1.82139,-0.9522 -3.63128,-1.92957 -5.40372,-2.91958 -1.76953,-0.99631 -3.61691,-1.76564 -5.38358,-2.64529 -3.56788,-1.62691 -6.93405,-3.50288 -10.22532,-4.96268 -3.31718,-1.42196 -6.43837,-2.85967 -9.30883,-4.21857 -2.86469,-1.3589 -5.5392,-2.50023 -7.92548,-3.49654 -2.37188,-0.9995 -4.42674,-1.93591 -6.12714,-2.71465 -3.40649,-1.52601 -5.34609,-2.50657 -5.34609,-2.50657 20.69274,4.52755 40.16059,11.64049 58.21917,21.99147 12.38394,7.01206 24.08196,15.46495 35.12578,25.31463 3.11829,2.76195 15.04978,13.6489 24.75634,26.73344 3.91084,5.27163 7.85341,12.08504 10.90834,17.93683 -16.34092,30.1228 -34.33319,59.27136 -50.12653,89.6716 -24.64108,47.41646 -43.12043,98.34526 -49.11496,152.75799 -3.71203,33.64456 -3.36043,68.16566 -0.77814,101.90171 2.54191,33.17164 8.88229,66.8036 26.18869,94.73197 13.86528,22.38561 46.3684,2.36155 33.45706,-21.3924 -14.9143,-27.44598 -19.5601,-58.53043 -21.40168,-89.96484 -1.22772,-20.94786 -1.92228,-42.11328 -1.26231,-63.17146 4.01751,-5.78243 8.48456,-11.70043 12.8364,-16.51806 15.04687,-16.66623 32.8893,-29.96199 37.54951,-33.32297 16.49653,-11.98735 33.72221,-21.9505 51.72603,-29.82013 26.25785,-11.64367 54.06335,-18.60528 83.24643,-21.80544 0,0 -2.80128,1.07197 -7.69778,2.6768 -2.44973,0.82919 -5.40663,1.81605 -8.81316,2.84706 -3.42671,1.02786 -7.26264,2.21019 -11.39828,3.66681 -4.13854,1.4535 -8.62872,2.98267 -13.39842,4.46138 -4.72934,1.52913 -9.6172,3.62581 -14.76158,5.34729 -2.55054,0.95535 -5.19911,1.74674 -7.76983,2.86601 -2.57362,1.10352 -5.19914,2.19125 -7.83904,3.23486 -2.64856,1.06567 -5.32017,2.14398 -7.99465,3.21911 -2.61398,1.20442 -5.27119,2.40251 -7.8909,3.61639 -2.6428,1.19178 -5.35476,2.2417 -7.92839,3.5596 -2.57362,1.31478 -5.13284,2.63268 -7.68338,3.91907 -5.15588,2.48763 -9.96307,5.41351 -14.76445,8.01468 -2.39496,1.3305 -4.56799,2.91642 -6.85341,4.24063 -2.2393,1.38414 -4.48437,2.65789 -6.52769,4.1429 -2.06927,1.4472 -4.09822,2.84392 -6.04646,4.18076 -1.9482,1.34944 -3.74368,2.79346 -5.52766,4.11454 -1.80699,1.299 -3.43244,2.66105 -4.98295,3.9758 -1.55342,1.28954 -3.11543,2.45296 -4.43828,3.67945 -2.20471,2.01783 -4.13277,3.76456 -5.79568,5.38514 65.2224,44.81529 119.64313,109.38983 199.54066,7.61739 24.84856,-31.62673 68.86817,-56.81524 115.49885,-56.67019 C 607.73318,274.75451 485.73545,243.47462 432.77015,432.64542"
     id="path3245"
     style="fill:#10db3f;fill-opacity:0.8;fill-rule:nonzero;stroke:none" />
  <path
     d="m 310.81219,894.17892 285.30022,0 0,-31.4377 -285.30022,0 0,31.4377 z"
     id="path3251"
     style="fill:#d39b2f;fill-opacity:1;fill-rule:nonzero;stroke:none" />
  <path
     d="m 438.06956,847.02389 285.30022,0 0,-31.4344 -285.30022,0 0,31.4344 z"
     id="path3253"
     style="fill:#d39b2f;fill-opacity:1;fill-rule:nonzero;stroke:none" />
  <path
     d="m 128.13407,847.02389 285.30018,0 0,-31.4344 -285.30018,0 0,31.4344 z"
     id="path3255"
     style="fill:#d39b2f;fill-opacity:1;fill-rule:nonzero;stroke:none" />
  <path
     d="m 255.39144,799.8694 285.30022,0 0,-31.43466 -285.30022,0 0,31.43466 z"
     id="path3257"
     style="fill:#d39b2f;fill-opacity:1;fill-rule:nonzero;stroke:none" />
  <path
     d="m 255.39144,705.55963 285.30022,0 0,-31.43441 -285.30022,0 0,31.43441 z"
     id="path3259"
     style="fill:#d39b2f;fill-opacity:1;fill-rule:nonzero;stroke:none" />
  <path
     d="m 64.515198,751.11447 285.300222,0 0,-31.43441 -285.300222,0 0,31.43441 z"
     id="path3261"
     style="fill:#d39b2f;fill-opacity:1;fill-rule:nonzero;stroke:none" />
  <path
     d="m 381.62569,752.71462 285.29445,0 0,-31.43441 -285.29445,0 0,31.43441 z"
     id="path3263"
     style="fill:#d39b2f;fill-opacity:1;fill-rule:nonzero;stroke:none" />
  <path
     d="m 83.457394,745.93262 -5.706363,0 0,-17.86736 5.706363,0 0,17.86736 z"
     id="path3265"
     style="fill:#e4c382;fill-opacity:1;fill-rule:nonzero;stroke:none" />
  <path
     d="m 96.290885,745.93262 -5.706326,0 0,-17.86736 5.706326,0 0,17.86736 z"
     id="path3267"
     style="fill:#e4c382;fill-opacity:1;fill-rule:nonzero;stroke:none" />
  <path
     d="m 109.12441,745.93262 -5.70346,0 0,-17.86736 5.70346,0 0,17.86736 z"
     id="path3269"
     style="fill:#e4c382;fill-opacity:1;fill-rule:nonzero;stroke:none" />
  <path
     d="m 121.95794,745.93262 -5.70346,0 0,-17.86736 5.70346,0 0,17.86736 z"
     id="path3271"
     style="fill:#e4c382;fill-opacity:1;fill-rule:nonzero;stroke:none" />
  <path
     d="m 134.79437,745.93262 -5.70349,0 0,-17.86736 5.70349,0 0,17.86736 z"
     id="path3273"
     style="fill:#e4c382;fill-opacity:1;fill-rule:nonzero;stroke:none" />
  <path
     d="m 147.62786,745.93262 -5.70345,0 0,-17.86736 5.70345,0 0,17.86736 z"
     id="path3275"
     style="fill:#e4c382;fill-opacity:1;fill-rule:nonzero;stroke:none" />
  <path
     d="m 160.46139,745.93262 -5.70346,0 0,-17.86736 5.70346,0 0,17.86736 z"
     id="path3277"
     style="fill:#e4c382;fill-opacity:1;fill-rule:nonzero;stroke:none" />
  <path
     d="m 173.29779,745.93262 -5.70346,0 0,-17.86736 5.70346,0 0,17.86736 z"
     id="path3279"
     style="fill:#e4c382;fill-opacity:1;fill-rule:nonzero;stroke:none" />
  <path
     d="m 186.13422,745.93262 -5.70636,0 0,-17.86736 5.70636,0 0,17.86736 z"
     id="path3281"
     style="fill:#e4c382;fill-opacity:1;fill-rule:nonzero;stroke:none" />
  <path
     d="m 198.96775,745.93262 -5.70637,0 0,-17.86736 5.70637,0 0,17.86736 z"
     id="path3283"
     style="fill:#e4c382;fill-opacity:1;fill-rule:nonzero;stroke:none" />
  <path
     d="m 211.80124,745.93262 -5.70346,0 0,-17.86736 5.70346,0 0,17.86736 z"
     id="path3285"
     style="fill:#e4c382;fill-opacity:1;fill-rule:nonzero;stroke:none" />
  <path
     d="m 224.63477,745.93262 -5.70346,0 0,-17.86736 5.70346,0 0,17.86736 z"
     id="path3287"
     style="fill:#e4c382;fill-opacity:1;fill-rule:nonzero;stroke:none" />
  <path
     d="m 237.4712,745.93262 -5.7035,0 0,-17.86736 5.7035,0 0,17.86736 z"
     id="path3289"
     style="fill:#e4c382;fill-opacity:1;fill-rule:nonzero;stroke:none" />
  <path
     d="m 250.30473,745.93262 -5.7035,0 0,-17.86736 5.7035,0 0,17.86736 z"
     id="path3291"
     style="fill:#e4c382;fill-opacity:1;fill-rule:nonzero;stroke:none" />
  <path
     d="m 263.13822,745.93262 -5.70346,0 0,-17.86736 5.70346,0 0,17.86736 z"
     id="path3293"
     style="fill:#e4c382;fill-opacity:1;fill-rule:nonzero;stroke:none" />
  <path
     d="m 275.97465,745.93262 -5.7035,0 0,-17.86736 5.7035,0 0,17.86736 z"
     id="path3295"
     style="fill:#e4c382;fill-opacity:1;fill-rule:nonzero;stroke:none" />
  <path
     d="m 288.81104,745.93262 -5.70636,0 0,-17.86736 5.70636,0 0,17.86736 z"
     id="path3297"
     style="fill:#e4c382;fill-opacity:1;fill-rule:nonzero;stroke:none" />
  <path
     d="m 301.64457,745.93262 -5.70636,0 0,-17.86736 5.70636,0 0,17.86736 z"
     id="path3299"
     style="fill:#e4c382;fill-opacity:1;fill-rule:nonzero;stroke:none" />
  <path
     d="m 314.4781,745.93262 -5.7035,0 0,-17.86736 5.7035,0 0,17.86736 z"
     id="path3301"
     style="fill:#e4c382;fill-opacity:1;fill-rule:nonzero;stroke:none" />
  <path
     d="m 327.31163,745.93262 -5.7035,0 0,-17.86736 5.7035,0 0,17.86736 z"
     id="path3303"
     style="fill:#e4c382;fill-opacity:1;fill-rule:nonzero;stroke:none" />
  <path
     d="m 340.14802,745.93262 -5.70346,0 0,-17.86736 5.70346,0 0,17.86736 z"
     id="path3305"
     style="fill:#e4c382;fill-opacity:1;fill-rule:nonzero;stroke:none" />
  <path
     d="m 352.98155,745.93262 -5.70346,0 0,-17.86736 5.70346,0 0,17.86736 z"
     id="path3307"
     style="fill:#e4c382;fill-opacity:1;fill-rule:nonzero;stroke:none" />
  <path
     d="m 266.13261,698.77784 -5.70346,0 0,-17.86732 5.70346,0 0,17.86732 z"
     id="path3309"
     style="fill:#e4c382;fill-opacity:1;fill-rule:nonzero;stroke:none" />
  <path
     d="m 278.96614,698.77784 -5.70346,0 0,-17.86732 5.70346,0 0,17.86732 z"
     id="path3311"
     style="fill:#e4c382;fill-opacity:1;fill-rule:nonzero;stroke:none" />
  <path
     d="m 291.79967,698.77784 -5.70346,0 0,-17.86732 5.70346,0 0,17.86732 z"
     id="path3313"
     style="fill:#e4c382;fill-opacity:1;fill-rule:nonzero;stroke:none" />
  <path
     d="m 304.63606,698.77784 -5.70346,0 0,-17.86732 5.70346,0 0,17.86732 z"
     id="path3315"
     style="fill:#e4c382;fill-opacity:1;fill-rule:nonzero;stroke:none" />
  <path
     d="m 317.4725,698.77784 -5.70637,0 0,-17.86732 5.70637,0 0,17.86732 z"
     id="path3317"
     style="fill:#e4c382;fill-opacity:1;fill-rule:nonzero;stroke:none" />
  <path
     d="m 330.30602,698.77784 -5.70636,0 0,-17.86732 5.70636,0 0,17.86732 z"
     id="path3319"
     style="fill:#e4c382;fill-opacity:1;fill-rule:nonzero;stroke:none" />
  <path
     d="m 343.14242,698.77784 -5.70346,0 0,-17.86732 5.70346,0 0,17.86732 z"
     id="path3321"
     style="fill:#e4c382;fill-opacity:1;fill-rule:nonzero;stroke:none" />
  <path
     d="m 355.97595,698.77784 -5.7035,0 0,-17.86732 5.7035,0 0,17.86732 z"
     id="path3323"
     style="fill:#e4c382;fill-opacity:1;fill-rule:nonzero;stroke:none" />
  <path
     d="m 368.80947,698.77784 -5.70349,0 0,-17.86732 5.70349,0 0,17.86732 z"
     id="path3325"
     style="fill:#e4c382;fill-opacity:1;fill-rule:nonzero;stroke:none" />
  <path
     d="m 381.64297,698.77784 -5.70346,0 0,-17.86732 5.70346,0 0,17.86732 z"
     id="path3327"
     style="fill:#e4c382;fill-opacity:1;fill-rule:nonzero;stroke:none" />
  <path
     d="m 394.47649,698.77784 -5.70346,0 0,-17.86732 5.70346,0 0,17.86732 z"
     id="path3329"
     style="fill:#e4c382;fill-opacity:1;fill-rule:nonzero;stroke:none" />
  <path
     d="m 407.31293,698.77784 -5.7035,0 0,-17.86732 5.7035,0 0,17.86732 z"
     id="path3331"
     style="fill:#e4c382;fill-opacity:1;fill-rule:nonzero;stroke:none" />
  <path
     d="m 420.14932,698.77784 -5.70636,0 0,-17.86732 5.70636,0 0,17.86732 z"
     id="path3333"
     style="fill:#e4c382;fill-opacity:1;fill-rule:nonzero;stroke:none" />
  <path
     d="m 432.97994,698.77784 -5.70345,0 0,-17.86732 5.70345,0 0,17.86732 z"
     id="path3335"
     style="fill:#e4c382;fill-opacity:1;fill-rule:nonzero;stroke:none" />
  <path
     d="m 445.81638,698.77784 -5.7035,0 0,-17.86732 5.7035,0 0,17.86732 z"
     id="path3337"
     style="fill:#e4c382;fill-opacity:1;fill-rule:nonzero;stroke:none" />
  <path
     d="m 458.65277,698.77784 -5.70346,0 0,-17.86732 5.70346,0 0,17.86732 z"
     id="path3339"
     style="fill:#e4c382;fill-opacity:1;fill-rule:nonzero;stroke:none" />
  <path
     d="m 471.48917,698.77784 -5.70633,0 0,-17.86732 5.70633,0 0,17.86732 z"
     id="path3341"
     style="fill:#e4c382;fill-opacity:1;fill-rule:nonzero;stroke:none" />
  <path
     d="m 484.32269,698.77784 -5.70636,0 0,-17.86732 5.70636,0 0,17.86732 z"
     id="path3343"
     style="fill:#e4c382;fill-opacity:1;fill-rule:nonzero;stroke:none" />
  <path
     d="m 497.15622,698.77784 -5.70346,0 0,-17.86732 5.70346,0 0,17.86732 z"
     id="path3345"
     style="fill:#e4c382;fill-opacity:1;fill-rule:nonzero;stroke:none" />
  <path
     d="m 509.98975,698.77784 -5.70346,0 0,-17.86732 5.70346,0 0,17.86732 z"
     id="path3347"
     style="fill:#e4c382;fill-opacity:1;fill-rule:nonzero;stroke:none" />
  <path
     d="m 522.82328,698.77784 -5.70346,0 0,-17.86732 5.70346,0 0,17.86732 z"
     id="path3349"
     style="fill:#e4c382;fill-opacity:1;fill-rule:nonzero;stroke:none" />
  <path
     d="m 535.65681,698.77784 -5.7035,0 0,-17.86732 5.7035,0 0,17.86732 z"
     id="path3351"
     style="fill:#e4c382;fill-opacity:1;fill-rule:nonzero;stroke:none" />
  <path
     d="m 392.364,745.93262 -5.70346,0 0,-17.86736 5.70346,0 0,17.86736 z"
     id="path3353"
     style="fill:#e4c382;fill-opacity:1;fill-rule:nonzero;stroke:none" />
  <path
     d="m 405.19753,745.93262 -5.70346,0 0,-17.86736 5.70346,0 0,17.86736 z"
     id="path3355"
     style="fill:#e4c382;fill-opacity:1;fill-rule:nonzero;stroke:none" />
  <path
     d="m 418.03106,745.93262 -5.70346,0 0,-17.86736 5.70346,0 0,17.86736 z"
     id="path3357"
     style="fill:#e4c382;fill-opacity:1;fill-rule:nonzero;stroke:none" />
  <path
     d="m 430.86745,745.93262 -5.70346,0 0,-17.86736 5.70346,0 0,17.86736 z"
     id="path3359"
     style="fill:#e4c382;fill-opacity:1;fill-rule:nonzero;stroke:none" />
  <path
     d="m 443.70098,745.93262 -5.70346,0 0,-17.86736 5.70346,0 0,17.86736 z"
     id="path3361"
     style="fill:#e4c382;fill-opacity:1;fill-rule:nonzero;stroke:none" />
  <path
     d="m 456.53451,745.93262 -5.70346,0 0,-17.86736 5.70346,0 0,17.86736 z"
     id="path3363"
     style="fill:#e4c382;fill-opacity:1;fill-rule:nonzero;stroke:none" />
  <path
     d="m 469.36803,745.93262 -5.70345,0 0,-17.86736 5.70345,0 0,17.86736 z"
     id="path3365"
     style="fill:#e4c382;fill-opacity:1;fill-rule:nonzero;stroke:none" />
  <path
     d="m 482.20443,745.93262 -5.70346,0 0,-17.86736 5.70346,0 0,17.86736 z"
     id="path3367"
     style="fill:#e4c382;fill-opacity:1;fill-rule:nonzero;stroke:none" />
  <path
     d="m 495.04082,745.93262 -5.70345,0 0,-17.86736 5.70345,0 0,17.86736 z"
     id="path3369"
     style="fill:#e4c382;fill-opacity:1;fill-rule:nonzero;stroke:none" />
  <path
     d="m 507.87435,745.93262 -5.70346,0 0,-17.86736 5.70346,0 0,17.86736 z"
     id="path3371"
     style="fill:#e4c382;fill-opacity:1;fill-rule:nonzero;stroke:none" />
  <path
     d="m 520.70788,745.93262 -5.70346,0 0,-17.86736 5.70346,0 0,17.86736 z"
     id="path3373"
     style="fill:#e4c382;fill-opacity:1;fill-rule:nonzero;stroke:none" />
  <path
     d="m 533.54428,745.93262 -5.70346,0 0,-17.86736 5.70346,0 0,17.86736 z"
     id="path3375"
     style="fill:#e4c382;fill-opacity:1;fill-rule:nonzero;stroke:none" />
  <path
     d="m 546.38071,745.93262 -5.70637,0 0,-17.86736 5.70637,0 0,17.86736 z"
     id="path3377"
     style="fill:#e4c382;fill-opacity:1;fill-rule:nonzero;stroke:none" />
  <path
     d="m 559.21133,745.93262 -5.70346,0 0,-17.86736 5.70346,0 0,17.86736 z"
     id="path3379"
     style="fill:#e4c382;fill-opacity:1;fill-rule:nonzero;stroke:none" />
  <path
     d="m 572.04486,745.93262 -5.70346,0 0,-17.86736 5.70346,0 0,17.86736 z"
     id="path3381"
     style="fill:#e4c382;fill-opacity:1;fill-rule:nonzero;stroke:none" />
  <path
     d="m 584.88125,745.93262 -5.70345,0 0,-17.86736 5.70345,0 0,17.86736 z"
     id="path3383"
     style="fill:#e4c382;fill-opacity:1;fill-rule:nonzero;stroke:none" />
  <path
     d="m 597.72055,745.93262 -5.70636,0 0,-17.86736 5.70636,0 0,17.86736 z"
     id="path3385"
     style="fill:#e4c382;fill-opacity:1;fill-rule:nonzero;stroke:none" />
  <path
     d="m 610.55408,745.93262 -5.70636,0 0,-17.86736 5.70636,0 0,17.86736 z"
     id="path3387"
     style="fill:#e4c382;fill-opacity:1;fill-rule:nonzero;stroke:none" />
  <path
     d="m 623.38761,745.93262 -5.70346,0 0,-17.86736 5.70346,0 0,17.86736 z"
     id="path3389"
     style="fill:#e4c382;fill-opacity:1;fill-rule:nonzero;stroke:none" />
  <path
     d="m 636.22114,745.93262 -5.7035,0 0,-17.86736 5.7035,0 0,17.86736 z"
     id="path3391"
     style="fill:#e4c382;fill-opacity:1;fill-rule:nonzero;stroke:none" />
  <path
     d="m 649.05467,745.93262 -5.7035,0 0,-17.86736 5.7035,0 0,17.86736 z"
     id="path3393"
     style="fill:#e4c382;fill-opacity:1;fill-rule:nonzero;stroke:none" />
  <path
     d="m 661.88816,745.93262 -5.70346,0 0,-17.86736 5.70346,0 0,17.86736 z"
     id="path3395"
     style="fill:#e4c382;fill-opacity:1;fill-rule:nonzero;stroke:none" />
  <path
     d="m 266.13261,793.08736 -5.70346,0 0,-17.86761 5.70346,0 0,17.86761 z"
     id="path3397"
     style="fill:#e4c382;fill-opacity:1;fill-rule:nonzero;stroke:none" />
  <path
     d="m 278.96614,793.08736 -5.70346,0 0,-17.86761 5.70346,0 0,17.86761 z"
     id="path3399"
     style="fill:#e4c382;fill-opacity:1;fill-rule:nonzero;stroke:none" />
  <path
     d="m 291.79967,793.08736 -5.70346,0 0,-17.86761 5.70346,0 0,17.86761 z"
     id="path3401"
     style="fill:#e4c382;fill-opacity:1;fill-rule:nonzero;stroke:none" />
  <path
     d="m 304.63606,793.08736 -5.70346,0 0,-17.86761 5.70346,0 0,17.86761 z"
     id="path3403"
     style="fill:#e4c382;fill-opacity:1;fill-rule:nonzero;stroke:none" />
  <path
     d="m 317.46959,793.08736 -5.70346,0 0,-17.86761 5.70346,0 0,17.86761 z"
     id="path3405"
     style="fill:#e4c382;fill-opacity:1;fill-rule:nonzero;stroke:none" />
  <path
     d="m 330.30312,793.08736 -5.70346,0 0,-17.86761 5.70346,0 0,17.86761 z"
     id="path3407"
     style="fill:#e4c382;fill-opacity:1;fill-rule:nonzero;stroke:none" />
  <path
     d="m 343.13951,793.08736 -5.70345,0 0,-17.86761 5.70345,0 0,17.86761 z"
     id="path3409"
     style="fill:#e4c382;fill-opacity:1;fill-rule:nonzero;stroke:none" />
  <path
     d="m 355.97595,793.08736 -5.7035,0 0,-17.86761 5.7035,0 0,17.86761 z"
     id="path3411"
     style="fill:#e4c382;fill-opacity:1;fill-rule:nonzero;stroke:none" />
  <path
     d="m 368.80947,793.08736 -5.70349,0 0,-17.86761 5.70349,0 0,17.86761 z"
     id="path3413"
     style="fill:#e4c382;fill-opacity:1;fill-rule:nonzero;stroke:none" />
  <path
     d="m 381.64297,793.08736 -5.70346,0 0,-17.86761 5.70346,0 0,17.86761 z"
     id="path3415"
     style="fill:#e4c382;fill-opacity:1;fill-rule:nonzero;stroke:none" />
  <path
     d="m 394.47649,793.08736 -5.70346,0 0,-17.86761 5.70346,0 0,17.86761 z"
     id="path3417"
     style="fill:#e4c382;fill-opacity:1;fill-rule:nonzero;stroke:none" />
  <path
     d="m 407.31293,793.08736 -5.7035,0 0,-17.86761 5.7035,0 0,17.86761 z"
     id="path3419"
     style="fill:#e4c382;fill-opacity:1;fill-rule:nonzero;stroke:none" />
  <path
     d="m 420.14932,793.08736 -5.70636,0 0,-17.86761 5.70636,0 0,17.86761 z"
     id="path3421"
     style="fill:#e4c382;fill-opacity:1;fill-rule:nonzero;stroke:none" />
  <path
     d="m 432.97994,793.08736 -5.70345,0 0,-17.86761 5.70345,0 0,17.86761 z"
     id="path3423"
     style="fill:#e4c382;fill-opacity:1;fill-rule:nonzero;stroke:none" />
  <path
     d="m 445.81638,793.08736 -5.7035,0 0,-17.86761 5.7035,0 0,17.86761 z"
     id="path3425"
     style="fill:#e4c382;fill-opacity:1;fill-rule:nonzero;stroke:none" />
  <path
     d="m 458.65277,793.08736 -5.70346,0 0,-17.86761 5.70346,0 0,17.86761 z"
     id="path3427"
     style="fill:#e4c382;fill-opacity:1;fill-rule:nonzero;stroke:none" />
  <path
     d="m 471.48917,793.08736 -5.70633,0 0,-17.86761 5.70633,0 0,17.86761 z"
     id="path3429"
     style="fill:#e4c382;fill-opacity:1;fill-rule:nonzero;stroke:none" />
  <path
     d="m 484.32269,793.08736 -5.70636,0 0,-17.86761 5.70636,0 0,17.86761 z"
     id="path3431"
     style="fill:#e4c382;fill-opacity:1;fill-rule:nonzero;stroke:none" />
  <path
     d="m 497.15622,793.08736 -5.70346,0 0,-17.86761 5.70346,0 0,17.86761 z"
     id="path3433"
     style="fill:#e4c382;fill-opacity:1;fill-rule:nonzero;stroke:none" />
  <path
     d="m 509.98975,793.08736 -5.70346,0 0,-17.86761 5.70346,0 0,17.86761 z"
     id="path3435"
     style="fill:#e4c382;fill-opacity:1;fill-rule:nonzero;stroke:none" />
  <path
     d="m 522.82328,793.08736 -5.70346,0 0,-17.86761 5.70346,0 0,17.86761 z"
     id="path3437"
     style="fill:#e4c382;fill-opacity:1;fill-rule:nonzero;stroke:none" />
  <path
     d="m 535.65681,793.08736 -5.7035,0 0,-17.86761 5.7035,0 0,17.86761 z"
     id="path3439"
     style="fill:#e4c382;fill-opacity:1;fill-rule:nonzero;stroke:none" />
  <path
     d="m 556.12759,799.8694 285.30022,0 0,-31.43466 -285.30022,0 0,31.43466 z"
     id="path3441"
     style="fill:#d39b2f;fill-opacity:1;fill-rule:nonzero;stroke:none" />
  <path
     d="m 566.86593,793.08736 -5.7035,0 0,-17.86761 5.7035,0 0,17.86761 z"
     id="path3443"
     style="fill:#e4c382;fill-opacity:1;fill-rule:nonzero;stroke:none" />
  <path
     d="m 579.70233,793.08736 -5.70346,0 0,-17.86761 5.70346,0 0,17.86761 z"
     id="path3445"
     style="fill:#e4c382;fill-opacity:1;fill-rule:nonzero;stroke:none" />
  <path
     d="m 592.53585,793.08736 -5.70345,0 0,-17.86761 5.70345,0 0,17.86761 z"
     id="path3447"
     style="fill:#e4c382;fill-opacity:1;fill-rule:nonzero;stroke:none" />
  <path
     d="m 605.37225,793.08736 -5.70346,0 0,-17.86761 5.70346,0 0,17.86761 z"
     id="path3449"
     style="fill:#e4c382;fill-opacity:1;fill-rule:nonzero;stroke:none" />
  <path
     d="m 618.20578,793.08736 -5.70346,0 0,-17.86761 5.70346,0 0,17.86761 z"
     id="path3451"
     style="fill:#e4c382;fill-opacity:1;fill-rule:nonzero;stroke:none" />
  <path
     d="m 631.03931,793.08736 -5.70346,0 0,-17.86761 5.70346,0 0,17.86761 z"
     id="path3453"
     style="fill:#e4c382;fill-opacity:1;fill-rule:nonzero;stroke:none" />
  <path
     d="m 643.87283,793.08736 -5.70349,0 0,-17.86761 5.70349,0 0,17.86761 z"
     id="path3455"
     style="fill:#e4c382;fill-opacity:1;fill-rule:nonzero;stroke:none" />
  <path
     d="m 656.70923,793.08736 -5.70346,0 0,-17.86761 5.70346,0 0,17.86761 z"
     id="path3457"
     style="fill:#e4c382;fill-opacity:1;fill-rule:nonzero;stroke:none" />
  <path
     d="m 669.54276,793.08736 -5.70346,0 0,-17.86761 5.70346,0 0,17.86761 z"
     id="path3459"
     style="fill:#e4c382;fill-opacity:1;fill-rule:nonzero;stroke:none" />
  <path
     d="m 682.37915,793.08736 -5.70346,0 0,-17.86761 5.70346,0 0,17.86761 z"
     id="path3461"
     style="fill:#e4c382;fill-opacity:1;fill-rule:nonzero;stroke:none" />
  <path
     d="m 695.21268,793.08736 -5.70346,0 0,-17.86761 5.70346,0 0,17.86761 z"
     id="path3463"
     style="fill:#e4c382;fill-opacity:1;fill-rule:nonzero;stroke:none" />
  <path
     d="m 708.04907,793.08736 -5.70345,0 0,-17.86761 5.70345,0 0,17.86761 z"
     id="path3465"
     style="fill:#e4c382;fill-opacity:1;fill-rule:nonzero;stroke:none" />
  <path
     d="m 720.88551,793.08736 -5.70637,0 0,-17.86761 5.70637,0 0,17.86761 z"
     id="path3467"
     style="fill:#e4c382;fill-opacity:1;fill-rule:nonzero;stroke:none" />
  <path
     d="m 733.71613,793.08736 -5.70346,0 0,-17.86761 5.70346,0 0,17.86761 z"
     id="path3469"
     style="fill:#e4c382;fill-opacity:1;fill-rule:nonzero;stroke:none" />
  <path
     d="m 746.54966,793.08736 -5.70346,0 0,-17.86761 5.70346,0 0,17.86761 z"
     id="path3471"
     style="fill:#e4c382;fill-opacity:1;fill-rule:nonzero;stroke:none" />
  <path
     d="m 759.38605,793.08736 -5.70346,0 0,-17.86761 5.70346,0 0,17.86761 z"
     id="path3473"
     style="fill:#e4c382;fill-opacity:1;fill-rule:nonzero;stroke:none" />
  <path
     d="m 772.22249,793.08736 -5.70637,0 0,-17.86761 5.70637,0 0,17.86761 z"
     id="path3475"
     style="fill:#e4c382;fill-opacity:1;fill-rule:nonzero;stroke:none" />
  <path
     d="m 785.05598,793.08736 -5.70633,0 0,-17.86761 5.70633,0 0,17.86761 z"
     id="path3477"
     style="fill:#e4c382;fill-opacity:1;fill-rule:nonzero;stroke:none" />
  <path
     d="m 797.89241,793.08736 -5.7035,0 0,-17.86761 5.7035,0 0,17.86761 z"
     id="path3479"
     style="fill:#e4c382;fill-opacity:1;fill-rule:nonzero;stroke:none" />
  <path
     d="m 810.72594,793.08736 -5.7035,0 0,-17.86761 5.7035,0 0,17.86761 z"
     id="path3481"
     style="fill:#e4c382;fill-opacity:1;fill-rule:nonzero;stroke:none" />
  <path
     d="m 823.55943,793.08736 -5.70346,0 0,-17.86761 5.70346,0 0,17.86761 z"
     id="path3483"
     style="fill:#e4c382;fill-opacity:1;fill-rule:nonzero;stroke:none" />
  <path
     d="m 836.39296,793.08736 -5.70346,0 0,-17.86761 5.70346,0 0,17.86761 z"
     id="path3485"
     style="fill:#e4c382;fill-opacity:1;fill-rule:nonzero;stroke:none" />
  <path
     d="m 448.81077,840.24214 -5.7035,0 0,-17.86761 5.7035,0 0,17.86761 z"
     id="path3487"
     style="fill:#e4c382;fill-opacity:1;fill-rule:nonzero;stroke:none" />
  <path
     d="m 461.6443,840.24214 -5.7035,0 0,-17.86761 5.7035,0 0,17.86761 z"
     id="path3489"
     style="fill:#e4c382;fill-opacity:1;fill-rule:nonzero;stroke:none" />
  <path
     d="m 474.47779,840.24214 -5.70346,0 0,-17.86761 5.70346,0 0,17.86761 z"
     id="path3491"
     style="fill:#e4c382;fill-opacity:1;fill-rule:nonzero;stroke:none" />
  <path
     d="m 487.31422,840.24214 -5.70349,0 0,-17.86761 5.70349,0 0,17.86761 z"
     id="path3493"
     style="fill:#e4c382;fill-opacity:1;fill-rule:nonzero;stroke:none" />
  <path
     d="m 500.14775,840.24214 -5.7035,0 0,-17.86761 5.7035,0 0,17.86761 z"
     id="path3495"
     style="fill:#e4c382;fill-opacity:1;fill-rule:nonzero;stroke:none" />
  <path
     d="m 512.98124,840.24214 -5.70346,0 0,-17.86761 5.70346,0 0,17.86761 z"
     id="path3497"
     style="fill:#e4c382;fill-opacity:1;fill-rule:nonzero;stroke:none" />
  <path
     d="m 525.81477,840.24214 -5.70346,0 0,-17.86761 5.70346,0 0,17.86761 z"
     id="path3499"
     style="fill:#e4c382;fill-opacity:1;fill-rule:nonzero;stroke:none" />
  <path
     d="m 538.6512,840.24214 -5.7035,0 0,-17.86761 5.7035,0 0,17.86761 z"
     id="path3501"
     style="fill:#e4c382;fill-opacity:1;fill-rule:nonzero;stroke:none" />
  <path
     d="m 551.4876,840.24214 -5.70346,0 0,-17.86761 5.70346,0 0,17.86761 z"
     id="path3503"
     style="fill:#e4c382;fill-opacity:1;fill-rule:nonzero;stroke:none" />
  <path
     d="m 564.32112,840.24214 -5.70345,0 0,-17.86761 5.70345,0 0,17.86761 z"
     id="path3505"
     style="fill:#e4c382;fill-opacity:1;fill-rule:nonzero;stroke:none" />
  <path
     d="m 577.15465,840.24214 -5.70349,0 0,-17.86761 5.70349,0 0,17.86761 z"
     id="path3507"
     style="fill:#e4c382;fill-opacity:1;fill-rule:nonzero;stroke:none" />
  <path
     d="m 589.99105,840.24214 -5.70346,0 0,-17.86761 5.70346,0 0,17.86761 z"
     id="path3509"
     style="fill:#e4c382;fill-opacity:1;fill-rule:nonzero;stroke:none" />
  <path
     d="m 602.82744,840.24214 -5.70632,0 0,-17.86761 5.70632,0 0,17.86761 z"
     id="path3511"
     style="fill:#e4c382;fill-opacity:1;fill-rule:nonzero;stroke:none" />
  <path
     d="m 615.6581,840.24214 -5.70349,0 0,-17.86761 5.70349,0 0,17.86761 z"
     id="path3513"
     style="fill:#e4c382;fill-opacity:1;fill-rule:nonzero;stroke:none" />
  <path
     d="m 628.49163,840.24214 -5.70349,0 0,-17.86761 5.70349,0 0,17.86761 z"
     id="path3515"
     style="fill:#e4c382;fill-opacity:1;fill-rule:nonzero;stroke:none" />
  <path
     d="m 641.32803,840.24214 -5.70346,0 0,-17.86761 5.70346,0 0,17.86761 z"
     id="path3517"
     style="fill:#e4c382;fill-opacity:1;fill-rule:nonzero;stroke:none" />
  <path
     d="m 654.16442,840.24214 -5.70636,0 0,-17.86761 5.70636,0 0,17.86761 z"
     id="path3519"
     style="fill:#e4c382;fill-opacity:1;fill-rule:nonzero;stroke:none" />
  <path
     d="m 667.00082,840.24214 -5.70633,0 0,-17.86761 5.70633,0 0,17.86761 z"
     id="path3521"
     style="fill:#e4c382;fill-opacity:1;fill-rule:nonzero;stroke:none" />
  <path
     d="m 679.83434,840.24214 -5.70345,0 0,-17.86761 5.70345,0 0,17.86761 z"
     id="path3523"
     style="fill:#e4c382;fill-opacity:1;fill-rule:nonzero;stroke:none" />
  <path
     d="m 692.66787,840.24214 -5.70346,0 0,-17.86761 5.70346,0 0,17.86761 z"
     id="path3525"
     style="fill:#e4c382;fill-opacity:1;fill-rule:nonzero;stroke:none" />
  <path
     d="m 705.5014,840.24214 -5.70346,0 0,-17.86761 5.70346,0 0,17.86761 z"
     id="path3527"
     style="fill:#e4c382;fill-opacity:1;fill-rule:nonzero;stroke:none" />
  <path
     d="m 718.33493,840.24214 -5.70346,0 0,-17.86761 5.70346,0 0,17.86761 z"
     id="path3529"
     style="fill:#e4c382;fill-opacity:1;fill-rule:nonzero;stroke:none" />
  <path
     d="m 321.5505,887.39688 -5.70346,0 0,-17.87062 5.70346,0 0,17.87062 z"
     id="path3531"
     style="fill:#e4c382;fill-opacity:1;fill-rule:nonzero;stroke:none" />
  <path
     d="m 334.38403,887.39688 -5.70346,0 0,-17.87062 5.70346,0 0,17.87062 z"
     id="path3533"
     style="fill:#e4c382;fill-opacity:1;fill-rule:nonzero;stroke:none" />
  <path
     d="m 347.22042,887.39688 -5.70346,0 0,-17.87062 5.70346,0 0,17.87062 z"
     id="path3535"
     style="fill:#e4c382;fill-opacity:1;fill-rule:nonzero;stroke:none" />
  <path
     d="m 360.05686,887.39688 -5.7035,0 0,-17.87062 5.7035,0 0,17.87062 z"
     id="path3537"
     style="fill:#e4c382;fill-opacity:1;fill-rule:nonzero;stroke:none" />
  <path
     d="m 372.89035,887.39688 -5.70346,0 0,-17.87062 5.70346,0 0,17.87062 z"
     id="path3539"
     style="fill:#e4c382;fill-opacity:1;fill-rule:nonzero;stroke:none" />
  <path
     d="m 385.72387,887.39688 -5.70345,0 0,-17.87062 5.70345,0 0,17.87062 z"
     id="path3541"
     style="fill:#e4c382;fill-opacity:1;fill-rule:nonzero;stroke:none" />
  <path
     d="m 398.5574,887.39688 -5.70346,0 0,-17.87062 5.70346,0 0,17.87062 z"
     id="path3543"
     style="fill:#e4c382;fill-opacity:1;fill-rule:nonzero;stroke:none" />
  <path
     d="m 411.39384,887.39688 -5.7035,0 0,-17.87062 5.7035,0 0,17.87062 z"
     id="path3545"
     style="fill:#e4c382;fill-opacity:1;fill-rule:nonzero;stroke:none" />
  <path
     d="m 424.22733,887.39688 -5.70346,0 0,-17.87062 5.70346,0 0,17.87062 z"
     id="path3547"
     style="fill:#e4c382;fill-opacity:1;fill-rule:nonzero;stroke:none" />
  <path
     d="m 437.06085,887.39688 -5.70346,0 0,-17.87062 5.70346,0 0,17.87062 z"
     id="path3549"
     style="fill:#e4c382;fill-opacity:1;fill-rule:nonzero;stroke:none" />
  <path
     d="m 449.89729,887.39688 -5.7035,0 0,-17.87062 5.7035,0 0,17.87062 z"
     id="path3551"
     style="fill:#e4c382;fill-opacity:1;fill-rule:nonzero;stroke:none" />
  <path
     d="m 462.73368,887.39688 -5.70346,0 0,-17.87062 5.70346,0 0,17.87062 z"
     id="path3553"
     style="fill:#e4c382;fill-opacity:1;fill-rule:nonzero;stroke:none" />
  <path
     d="m 475.57008,887.39688 -5.70637,0 0,-17.87062 5.70637,0 0,17.87062 z"
     id="path3555"
     style="fill:#e4c382;fill-opacity:1;fill-rule:nonzero;stroke:none" />
  <path
     d="m 488.40074,887.39688 -5.7035,0 0,-17.87062 5.7035,0 0,17.87062 z"
     id="path3557"
     style="fill:#e4c382;fill-opacity:1;fill-rule:nonzero;stroke:none" />
  <path
     d="m 501.23423,887.39688 -5.70346,0 0,-17.87062 5.70346,0 0,17.87062 z"
     id="path3559"
     style="fill:#e4c382;fill-opacity:1;fill-rule:nonzero;stroke:none" />
  <path
     d="m 514.07066,887.39688 -5.70346,0 0,-17.87062 5.70346,0 0,17.87062 z"
     id="path3561"
     style="fill:#e4c382;fill-opacity:1;fill-rule:nonzero;stroke:none" />
  <path
     d="m 526.90706,887.39688 -5.70637,0 0,-17.87062 5.70637,0 0,17.87062 z"
     id="path3563"
     style="fill:#e4c382;fill-opacity:1;fill-rule:nonzero;stroke:none" />
  <path
     d="m 539.74058,887.39688 -5.70636,0 0,-17.87062 5.70636,0 0,17.87062 z"
     id="path3565"
     style="fill:#e4c382;fill-opacity:1;fill-rule:nonzero;stroke:none" />
  <path
     d="m 552.57411,887.39688 -5.70346,0 0,-17.87062 5.70346,0 0,17.87062 z"
     id="path3567"
     style="fill:#e4c382;fill-opacity:1;fill-rule:nonzero;stroke:none" />
  <path
     d="m 565.41051,887.39688 -5.70346,0 0,-17.87062 5.70346,0 0,17.87062 z"
     id="path3569"
     style="fill:#e4c382;fill-opacity:1;fill-rule:nonzero;stroke:none" />
  <path
     d="m 578.24403,887.39688 -5.70345,0 0,-17.87062 5.70345,0 0,17.87062 z"
     id="path3571"
     style="fill:#e4c382;fill-opacity:1;fill-rule:nonzero;stroke:none" />
  <path
     d="m 591.07756,887.39688 -5.70346,0 0,-17.87062 5.70346,0 0,17.87062 z"
     id="path3573"
     style="fill:#e4c382;fill-opacity:1;fill-rule:nonzero;stroke:none" />
  <path
     d="m 138.87525,840.24515 -5.70346,0 0,-17.87062 5.70346,0 0,17.87062 z"
     id="path3575"
     style="fill:#e4c382;fill-opacity:1;fill-rule:nonzero;stroke:none" />
  <path
     d="m 151.70877,840.24515 -5.70346,0 0,-17.87062 5.70346,0 0,17.87062 z"
     id="path3577"
     style="fill:#e4c382;fill-opacity:1;fill-rule:nonzero;stroke:none" />
  <path
     d="m 164.5423,840.24515 -5.70346,0 0,-17.87062 5.70346,0 0,17.87062 z"
     id="path3579"
     style="fill:#e4c382;fill-opacity:1;fill-rule:nonzero;stroke:none" />
  <path
     d="m 177.3787,840.24515 -5.70346,0 0,-17.87062 5.70346,0 0,17.87062 z"
     id="path3581"
     style="fill:#e4c382;fill-opacity:1;fill-rule:nonzero;stroke:none" />
  <path
     d="m 190.21223,840.24515 -5.70346,0 0,-17.87062 5.70346,0 0,17.87062 z"
     id="path3583-4"
     style="fill:#e4c382;fill-opacity:1;fill-rule:nonzero;stroke:none" />
  <path
     d="m 203.04575,840.24515 -5.70346,0 0,-17.87062 5.70346,0 0,17.87062 z"
     id="path3585-0"
     style="fill:#e4c382;fill-opacity:1;fill-rule:nonzero;stroke:none" />
  <path
     d="m 215.87928,840.24515 -5.70346,0 0,-17.87062 5.70346,0 0,17.87062 z"
     id="path3587-2"
     style="fill:#e4c382;fill-opacity:1;fill-rule:nonzero;stroke:none" />
  <path
     d="m 228.71281,840.24515 -5.70346,0 0,-17.87062 5.70346,0 0,17.87062 z"
     id="path3589"
     style="fill:#e4c382;fill-opacity:1;fill-rule:nonzero;stroke:none" />
  <path
     d="m 241.5492,840.24515 -5.70346,0 0,-17.87062 5.70346,0 0,17.87062 z"
     id="path3591"
     style="fill:#e4c382;fill-opacity:1;fill-rule:nonzero;stroke:none" />
  <path
     d="m 254.38273,840.24515 -5.70346,0 0,-17.87062 5.70346,0 0,17.87062 z"
     id="path3593"
     style="fill:#e4c382;fill-opacity:1;fill-rule:nonzero;stroke:none" />
  <path
     d="m 267.21626,840.24515 -5.70346,0 0,-17.87062 5.70346,0 0,17.87062 z"
     id="path3595"
     style="fill:#e4c382;fill-opacity:1;fill-rule:nonzero;stroke:none" />
  <path
     d="m 280.05556,840.24515 -5.70636,0 0,-17.87062 5.70636,0 0,17.87062 z"
     id="path3597"
     style="fill:#e4c382;fill-opacity:1;fill-rule:nonzero;stroke:none" />
  <path
     d="m 292.88905,840.24515 -5.70633,0 0,-17.87062 5.70633,0 0,17.87062 z"
     id="path3599"
     style="fill:#e4c382;fill-opacity:1;fill-rule:nonzero;stroke:none" />
  <path
     d="m 305.72258,840.24515 -5.70346,0 0,-17.87062 5.70346,0 0,17.87062 z"
     id="path3601"
     style="fill:#e4c382;fill-opacity:1;fill-rule:nonzero;stroke:none" />
  <path
     d="m 318.55611,840.24515 -5.70346,0 0,-17.87062 5.70346,0 0,17.87062 z"
     id="path3603"
     style="fill:#e4c382;fill-opacity:1;fill-rule:nonzero;stroke:none" />
  <path
     d="m 331.38963,840.24515 -5.70345,0 0,-17.87062 5.70345,0 0,17.87062 z"
     id="path3605"
     style="fill:#e4c382;fill-opacity:1;fill-rule:nonzero;stroke:none" />
  <path
     d="m 344.22893,840.24515 -5.70636,0 0,-17.87062 5.70636,0 0,17.87062 z"
     id="path3607"
     style="fill:#e4c382;fill-opacity:1;fill-rule:nonzero;stroke:none" />
  <path
     d="m 357.06533,840.24515 -5.70637,0 0,-17.87062 5.70637,0 0,17.87062 z"
     id="path3609"
     style="fill:#e4c382;fill-opacity:1;fill-rule:nonzero;stroke:none" />
  <path
     d="m 369.89886,840.24515 -5.70637,0 0,-17.87062 5.70637,0 0,17.87062 z"
     id="path3611"
     style="fill:#e4c382;fill-opacity:1;fill-rule:nonzero;stroke:none" />
  <path
     d="m 382.73238,840.24515 -5.70636,0 0,-17.87062 5.70636,0 0,17.87062 z"
     id="path3613"
     style="fill:#e4c382;fill-opacity:1;fill-rule:nonzero;stroke:none" />
  <path
     d="m 395.56591,840.24515 -5.70349,0 0,-17.87062 5.70349,0 0,17.87062 z"
     id="path3615"
     style="fill:#e4c382;fill-opacity:1;fill-rule:nonzero;stroke:none" />
  <path
     d="m 408.39944,840.24515 -5.7035,0 0,-17.87062 5.7035,0 0,17.87062 z"
     id="path3617"
     style="fill:#e4c382;fill-opacity:1;fill-rule:nonzero;stroke:none" />
</svg>
