<?xml version="1.0" encoding="UTF-8" standalone="no"?>
<svg
   xmlns:dc="http://purl.org/dc/elements/1.1/"
   xmlns:cc="http://creativecommons.org/ns#"
   xmlns:rdf="http://www.w3.org/1999/02/22-rdf-syntax-ns#"
   xmlns:svg="http://www.w3.org/2000/svg"
   xmlns="http://www.w3.org/2000/svg"
   xmlns:sodipodi="http://sodipodi.sourceforge.net/DTD/sodipodi-0.dtd"
   xmlns:inkscape="http://www.inkscape.org/namespaces/inkscape"
   id="svg3361"
   viewBox="0 0 933.82 926.76"
   version="1.1"
   inkscape:version="0.48.3.1 r9886"
   width="100%"
   height="100%"
   sodipodi:docname="logo1.svg">
  <defs
     id="defs43">
    <inkscape:perspective
       sodipodi:type="inkscape:persp3d"
       inkscape:vp_x="0 : 0.5 : 1"
       inkscape:vp_y="0 : 1000 : 0"
       inkscape:vp_z="1 : 0.5 : 1"
       inkscape:persp3d-origin="0.5 : 0.33333333 : 1"
       id="perspective2966" />
    <inkscape:perspective
       id="perspective10"
       inkscape:persp3d-origin="372.04724 : 350.78739 : 1"
       inkscape:vp_z="744.09448 : 526.18109 : 1"
       inkscape:vp_y="0 : 1000 : 0"
       inkscape:vp_x="0 : 526.18109 : 1"
       sodipodi:type="inkscape:persp3d" />
  </defs>
  <sodipodi:namedview
     pagecolor="#ffffff"
     bordercolor="#666666"
     borderopacity="1"
     objecttolerance="10"
     gridtolerance="10"
     guidetolerance="10"
     inkscape:pageopacity="0"
     inkscape:pageshadow="2"
     inkscape:window-width="1366"
     inkscape:window-height="681"
     id="namedview41"
     showgrid="false"
     inkscape:zoom="0.44348051"
     inkscape:cx="58.774818"
     inkscape:cy="453.85762"
     inkscape:window-x="0"
     inkscape:window-y="27"
     inkscape:window-maximized="1"
     inkscape:current-layer="svg3361" />
  <g
     style="fill:#000000;fill-opacity:1"
     transform="translate(647.529,-230.065)"
     id="g3661">
    <path
       inkscape:connector-curvature="0"
       d="m 354.29,212.36 c 0,42.605 -34.538,77.143 -77.143,77.143 -42.605,0 -77.143,-34.538 -77.143,-77.143 0,-42.605 34.538,-77.143 77.143,-77.143 42.605,0 77.143,34.538 77.143,77.143 z"
       transform="translate(-451.15,100.98)"
       style="color:#000000;fill:#000000;fill-opacity:1"
       id="path3663" />
    <path
       inkscape:connector-curvature="0"
       d="m -174.02,395.44 c -93.998,0 -171.33,71.224 -181,162.66 h 34.812 c 9.4866,-72.294 71.301,-128.09 146.19,-128.09 74.886,0 136.73,55.8 146.22,128.09 H 7.014 C -2.663,466.67 -80.025,395.44 -174.016,395.44 z"
       style="color:#000000;fill:#000000;fill-opacity:1"
       id="path3665" />
    <path
       inkscape:connector-curvature="0"
       d="m -198.53,560.25 c -59.204,0 -107.19,85.749 -107.19,191.5 0,3.2344 0.0706,6.4335 0.15625,9.625 21.553,-36.703 61.391,-61.344 107.03,-61.344 45.63,0 85.507,24.622 107.06,61.312 0.08505,-3.181 0.125,-6.37 0.125,-9.5938 0,-105.75 -47.983,-191.5 -107.19,-191.5 z"
       transform="translate(24.511,-166.98)"
       style="color:#000000;fill:#000000;fill-opacity:1"
       id="path3667" />
  </g>
  <g
     style="fill:#000000;fill-opacity:1"
     transform="matrix(-1,0,0,-1,299.509,1162.945)"
     id="g3669">
    <path
       inkscape:connector-curvature="0"
       d="m 354.29,212.36 c 0,42.605 -34.538,77.143 -77.143,77.143 -42.605,0 -77.143,-34.538 -77.143,-77.143 0,-42.605 34.538,-77.143 77.143,-77.143 42.605,0 77.143,34.538 77.143,77.143 z"
       transform="translate(-451.15,100.98)"
       style="color:#000000;fill:#000000;fill-opacity:1"
       id="path3671" />
    <path
       inkscape:connector-curvature="0"
       d="m -174.02,395.44 c -93.998,0 -171.33,71.224 -181,162.66 h 34.812 c 9.4866,-72.294 71.301,-128.09 146.19,-128.09 74.886,0 136.73,55.8 146.22,128.09 H 7.014 C -2.663,466.67 -80.025,395.44 -174.016,395.44 z"
       style="color:#000000;fill:#000000;fill-opacity:1"
       id="path3673" />
    <path
       inkscape:connector-curvature="0"
       d="m -198.53,560.25 c -59.204,0 -107.19,85.749 -107.19,191.5 0,3.2344 0.0706,6.4335 0.15625,9.625 21.553,-36.703 61.391,-61.344 107.03,-61.344 45.63,0 85.507,24.622 107.06,61.312 0.08505,-3.181 0.125,-6.37 0.125,-9.5938 0,-105.75 -47.983,-191.5 -107.19,-191.5 z"
       transform="translate(24.511,-166.98)"
       style="color:#000000;fill:#000000;fill-opacity:1"
       id="path3675" />
  </g>
  <path
     id="path3679"
     style="color:#000000;fill:#000000;fill-opacity:1"
     d="m 856.6922,543.585 c -42.605,0 -77.143,-34.538 -77.143,-77.143 0,-42.605 34.538,-77.143 77.143,-77.143 42.605,0 77.143,34.538 77.143,77.143 0,42.605 -34.538,77.143 -77.143,77.143 z"
     inkscape:connector-curvature="0" />
  <path
     id="path3681"
     style="color:#000000;fill:#000000;fill-opacity:1"
     d="m 774.5922,466.425 c 0,-93.998 -71.224,-171.33 -162.66,-181 l 0,34.812 c 72.294,9.4866 128.09,71.301 128.09,146.19 0,74.886 -55.8,136.73 -128.09,146.22 l 0,34.812 c 91.43,-9.677 162.66,-87.039 162.66,-181.03 z"
     inkscape:connector-curvature="0" />
  <path
     id="path3683"
     style="color:#000000;fill:#000000;fill-opacity:1"
     d="m 776.7622,466.426 c 0,-59.204 -85.749,-107.19 -191.5,-107.19 -3.2344,0 -6.4335,0.0706 -9.625,0.15625 36.703,21.553 61.344,61.391 61.344,107.03 0,45.63 -24.622,85.507 -61.312,107.06 3.181,0.0851 6.37,0.125 9.5938,0.125 105.75,0 191.5,-47.983 191.5,-107.19 z"
     inkscape:connector-curvature="0" />
  <g
     style="fill:#000000;fill-opacity:1"
     transform="matrix(0,-1,1,0,-223.031,292.435)"
     id="g3685">
    <path
       inkscape:connector-curvature="0"
       d="m 354.29,212.36 c 0,42.605 -34.538,77.143 -77.143,77.143 -42.605,0 -77.143,-34.538 -77.143,-77.143 0,-42.605 34.538,-77.143 77.143,-77.143 42.605,0 77.143,34.538 77.143,77.143 z"
       transform="translate(-451.15,100.98)"
       style="color:#000000;fill:#000000;fill-opacity:1"
       id="path3687" />
    <path
       inkscape:connector-curvature="0"
       d="m -174.02,395.44 c -93.998,0 -171.33,71.224 -181,162.66 h 34.812 c 9.4866,-72.294 71.301,-128.09 146.19,-128.09 74.886,0 136.73,55.8 146.22,128.09 H 7.014 C -2.663,466.67 -80.025,395.44 -174.016,395.44 z"
       style="color:#000000;fill:#000000;fill-opacity:1"
       id="path3689" />
    <path
       inkscape:connector-curvature="0"
       d="m -198.53,560.25 c -59.204,0 -107.19,85.749 -107.19,191.5 0,3.2344 0.0706,6.4335 0.15625,9.625 21.553,-36.703 61.391,-61.344 107.03,-61.344 45.63,0 85.507,24.622 107.06,61.312 0.08505,-3.181 0.125,-6.37 0.125,-9.5938 0,-105.75 -47.983,-191.5 -107.19,-191.5 z"
       transform="translate(24.511,-166.98)"
       style="color:#000000;fill:#000000;fill-opacity:1"
       id="path3691" />
  </g>
  <g
     style="fill:#d44117"
     transform="translate(-822.56911,-436.46941)"
     id="g3576">
    <path
       inkscape:connector-curvature="0"
       d="m 354.29,212.36 c 0,42.605 -34.538,77.143 -77.143,77.143 -42.605,0 -77.143,-34.538 -77.143,-77.143 0,-42.605 34.538,-77.143 77.143,-77.143 42.605,0 77.143,34.538 77.143,77.143 z"
       transform="translate(-451.15,100.98)"
       style="color:#000000"
       id="path2901" />
    <path
       inkscape:connector-curvature="0"
       d="m -174.02,395.44 c -93.998,0 -171.33,71.224 -181,162.66 h 34.812 c 9.4866,-72.294 71.301,-128.09 146.19,-128.09 74.886,0 136.73,55.8 146.22,128.09 H 7.014 C -2.663,466.67 -80.025,395.44 -174.016,395.44 z"
       style="color:#000000"
       id="path2903" />
    <path
       inkscape:connector-curvature="0"
       d="m -198.53,560.25 c -59.204,0 -107.19,85.749 -107.19,191.5 0,3.2344 0.0706,6.4335 0.15625,9.625 21.553,-36.703 61.391,-61.344 107.03,-61.344 45.63,0 85.507,24.622 107.06,61.312 0.08505,-3.181 0.125,-6.37 0.125,-9.5938 0,-105.75 -47.983,-191.5 -107.19,-191.5 z"
       transform="translate(24.511,-166.98)"
       style="color:#000000"
       id="path2911" />
  </g>
  <g
     style="fill:#6bb427"
     transform="matrix(-1,0,0,-1,-715.06303,1270.6965)"
     id="g3581">
    <path
       inkscape:connector-curvature="0"
       d="m 354.29,212.36 c 0,42.605 -34.538,77.143 -77.143,77.143 -42.605,0 -77.143,-34.538 -77.143,-77.143 0,-42.605 34.538,-77.143 77.143,-77.143 42.605,0 77.143,34.538 77.143,77.143 z"
       transform="translate(-451.15,100.98)"
       style="color:#000000"
       id="path3583" />
    <path
       inkscape:connector-curvature="0"
       d="m -174.02,395.44 c -93.998,0 -171.33,71.224 -181,162.66 h 34.812 c 9.4866,-72.294 71.301,-128.09 146.19,-128.09 74.886,0 136.73,55.8 146.22,128.09 H 7.014 C -2.663,466.67 -80.025,395.44 -174.016,395.44 z"
       style="color:#000000"
       id="path3585" />
    <path
       inkscape:connector-curvature="0"
       d="m -198.53,560.25 c -59.204,0 -107.19,85.749 -107.19,191.5 0,3.2344 0.0706,6.4335 0.15625,9.625 21.553,-36.703 61.391,-61.344 107.03,-61.344 45.63,0 85.507,24.622 107.06,61.312 0.08505,-3.181 0.125,-6.37 0.125,-9.5938 0,-105.75 -47.983,-191.5 -107.19,-191.5 z"
       transform="translate(24.511,-166.98)"
       style="color:#000000"
       id="path3587" />
  </g>
  <g
     style="fill:#f2a438"
     transform="matrix(0,1,-1,0,14.090036,445.82144)"
     id="g3625">
    <path
       inkscape:connector-curvature="0"
       d="m 354.29,212.36 c 0,42.605 -34.538,77.143 -77.143,77.143 -42.605,0 -77.143,-34.538 -77.143,-77.143 0,-42.605 34.538,-77.143 77.143,-77.143 42.605,0 77.143,34.538 77.143,77.143 z"
       transform="translate(-451.15,100.98)"
       style="color:#000000"
       id="path3627" />
    <path
       inkscape:connector-curvature="0"
       d="m -174.02,395.44 c -93.998,0 -171.33,71.224 -181,162.66 h 34.812 c 9.4866,-72.294 71.301,-128.09 146.19,-128.09 74.886,0 136.73,55.8 146.22,128.09 H 7.014 C -2.663,466.67 -80.025,395.44 -174.016,395.44 z"
       style="color:#000000"
       id="path3629" />
    <path
       inkscape:connector-curvature="0"
       d="m -198.53,560.25 c -59.204,0 -107.19,85.749 -107.19,191.5 0,3.2344 0.0706,6.4335 0.15625,9.625 21.553,-36.703 61.391,-61.344 107.03,-61.344 45.63,0 85.507,24.622 107.06,61.312 0.08505,-3.181 0.125,-6.37 0.125,-9.5938 0,-105.75 -47.983,-191.5 -107.19,-191.5 z"
       transform="translate(24.511,-166.98)"
       style="color:#000000"
       id="path3631" />
  </g>
  <g
     style="fill:#5775b1"
     transform="matrix(0,-1,1,0,-1928.7461,164.56958)"
     id="g3633">
    <path
       inkscape:connector-curvature="0"
       d="m 354.29,212.36 c 0,42.605 -34.538,77.143 -77.143,77.143 -42.605,0 -77.143,-34.538 -77.143,-77.143 0,-42.605 34.538,-77.143 77.143,-77.143 42.605,0 77.143,34.538 77.143,77.143 z"
       transform="translate(-451.15,100.98)"
       style="color:#000000"
       id="path3635" />
    <path
       inkscape:connector-curvature="0"
       d="m -174.02,395.44 c -93.998,0 -171.33,71.224 -181,162.66 h 34.812 c 9.4866,-72.294 71.301,-128.09 146.19,-128.09 74.886,0 136.73,55.8 146.22,128.09 H 7.014 C -2.663,466.67 -80.025,395.44 -174.016,395.44 z"
       style="color:#000000"
       id="path3637" />
    <path
       inkscape:connector-curvature="0"
       d="m -198.53,560.25 c -59.204,0 -107.19,85.749 -107.19,191.5 0,3.2344 0.0706,6.4335 0.15625,9.625 21.553,-36.703 61.391,-61.344 107.03,-61.344 45.63,0 85.507,24.622 107.06,61.312 0.08505,-3.181 0.125,-6.37 0.125,-9.5938 0,-105.75 -47.983,-191.5 -107.19,-191.5 z"
       transform="translate(24.511,-166.98)"
       style="color:#000000"
       id="path3639" />
  </g>
  <metadata
     id="metadata39">
    <rdf:RDF>
      <cc:Work>
        <dc:format>image/svg+xml</dc:format>
        <dc:type
           rdf:resource="http://purl.org/dc/dcmitype/StillImage" />
        <cc:license
           rdf:resource="http://creativecommons.org/licenses/publicdomain/" />
        <dc:publisher>
          <cc:Agent
             rdf:about="http://openclipart.org/">
            <dc:title>Openclipart</dc:title>
          </cc:Agent>
        </dc:publisher>
        <dc:title></dc:title>
        <dc:date>2010-07-21T08:57:15</dc:date>
        <dc:description>Community, clip art, clipart, crowd, group, man, men, people, svg, </dc:description>
        <dc:source>http://openclipart.org/detail/74185/community-by-russel-74185</dc:source>
        <dc:creator>
          <cc:Agent>
            <dc:title>russel</dc:title>
          </cc:Agent>
        </dc:creator>
        <dc:subject>
          <rdf:Bag>
            <rdf:li>Community</rdf:li>
            <rdf:li>clip art</rdf:li>
            <rdf:li>clipart</rdf:li>
            <rdf:li>crowd</rdf:li>
            <rdf:li>group</rdf:li>
            <rdf:li>man</rdf:li>
            <rdf:li>men</rdf:li>
            <rdf:li>people</rdf:li>
            <rdf:li>svg</rdf:li>
          </rdf:Bag>
        </dc:subject>
      </cc:Work>
      <cc:License
         rdf:about="http://creativecommons.org/licenses/publicdomain/">
        <cc:permits
           rdf:resource="http://creativecommons.org/ns#Reproduction" />
        <cc:permits
           rdf:resource="http://creativecommons.org/ns#Distribution" />
        <cc:permits
           rdf:resource="http://creativecommons.org/ns#DerivativeWorks" />
      </cc:License>
    </rdf:RDF>
  </metadata>
  <path
     inkscape:connector-curvature="0"
     style="fill:none;stroke:#000000;stroke-width:1.51799999000000008;stroke-linecap:butt;stroke-linejoin:miter;stroke-opacity:1;stroke-miterlimit:4;stroke-dasharray:none;fill-opacity:1"
     d="m 429.7618,459.96362 c 3.85619,0.13894 8.20138,-0.52341 9.43254,0.63266 0.64773,0.60822 -0.19101,2.98393 0.67375,3.79594 0.31761,0.29824 1.0299,-0.29824 1.34751,0 0.56146,0.52721 0.78605,1.37076 1.34751,1.89797 1.12607,1.05739 4.71627,-0.91296 4.71627,-0.63266 0,0.21089 -0.89834,0 -0.67375,0 1.49997,0 2.04204,0.63266 4.04252,0.63266 0.52755,0 3.03258,-0.31568 3.36876,0 0.31761,0.29823 -0.20087,0.88807 0,1.26531 1.402,2.63297 -0.0465,-0.67633 1.34751,0.63266 0.44917,0.42177 0.22458,1.4762 0.67375,1.89797 0.15881,0.14912 0.51495,-0.14912 0.67376,0 0.47641,0.44736 0,2.53063 0,1.89797 0,-0.42177 0,-1.68708 0,-1.26531 0,3.88152 0,0.72129 0,3.16328 0,0.21089 0.22458,0.63266 0,0.63266 -0.22459,0 0,-0.84354 0,-0.63266 0,0.63266 0.67375,1.89798 0,1.89798 -0.22459,0 0.22458,-0.63266 0,-0.63266 -0.50219,0 -0.99241,0.29922 -1.34751,0.63266 -0.43697,0.41031 0.39045,3.16328 0,3.16328 -0.22458,0 0.1588,-0.78178 0,-0.63266 -1.57444,1.47841 -1.34751,3.16817 -1.34751,5.69392 0,2.37538 -2.10522,3.00559 -1.34751,4.4286 1.00364,1.88481 2.70532,2.54029 4.04253,3.79594 0.0432,0.0405 1.30434,3.75541 1.3475,3.79594 0.31761,0.29823 1.0299,-0.29824 1.34751,0 0.31761,0.29823 -0.31761,0.96708 0,1.26531 0.15881,0.14912 0.51495,-0.14912 0.67375,0 1.4506,1.36212 0.18016,1.43449 1.34751,2.53063 0.80975,0.76036 2.3445,0.15176 3.36877,0.63266 0.40174,0.18862 0,0.84354 0,1.26531 0,0.42177 0.44916,1.26531 0,1.26531 -0.22459,0 0,-0.84354 0,-0.63265 0,0.84354 0.89833,2.53063 0,2.53063 -0.22459,0 -0.22459,-0.63266 0,-0.63266 0.31761,0 0.53171,0.3659 0.67375,0.63266 0.28048,0.52674 -0.42737,2.12932 0,2.53063 0.1588,0.14911 0.51495,-0.14913 0.67375,0 0.56582,0.5313 0.26838,5.31326 0.67375,5.69391 0.15881,0.14912 0.51496,-0.14912 0.67376,0 1.58007,1.48369 -2.07575,0 -0.67376,0 1.76046,0 1.68378,3.48018 1.34751,3.79594 -0.17834,0.16747 -1.74383,0 -2.02126,0 -0.22458,0 -0.67375,0.21089 -0.67375,0 0,-0.85406 1.08616,1.65257 2.02126,2.53063 0.15881,0.14912 0.51494,-0.14912 0.67375,0 0.33688,0.31633 -0.33687,1.58164 0,1.89797 0.23226,0.21809 2.33077,1.26531 0.67376,1.26531 -0.22459,0 -0.22459,-0.63266 0,-0.63266 1.402,0 0.2711,0.88722 0.67375,1.26532 0.1588,0.14912 0.51495,-0.14912 0.67375,0 0.0417,0.0391 0.19243,6.59785 -0.67375,8.22454 -0.19294,0.36234 -0.37617,-0.45604 -1.34751,0 -0.20087,0.0943 0.15881,0.48354 0,0.63266 -0.56146,0.52721 -2.13355,0.10544 -2.69501,0.63265 -0.31508,0.29587 -1.02903,6.02753 -2.02126,6.95923 -0.1588,0.14912 -0.51495,-0.14911 -0.67376,0 -0.39089,0.36705 -0.67375,5.64535 -0.67375,6.95923 0,1.05443 0,2.10886 0,3.16329 0,0.21088 0.22459,0.63265 0,0.63265 -0.22458,0 0,-0.84354 0,-0.63265 0,1.74267 0.57852,1.08646 1.34751,2.53062 0.4919,0.92379 -0.19388,2.34858 0.67375,3.16329 0.44113,0.41422 1.55701,0.39345 2.02126,1.26531 0.2034,0.38198 -0.31145,1.60552 0,1.89797 0.33688,0.31633 1.01063,0.31633 1.34751,0.63266 1.04102,0.97753 -0.12273,3.6807 0.67375,4.4286 0.15881,0.14912 0.51495,-0.14912 0.67376,0 0.31145,0.29245 -0.2034,1.51599 0,1.89797 0.48637,0.91343 0.86113,1.61721 1.3475,2.53063 0.2034,0.38198 -0.31145,1.60551 0,1.89797 0.15881,0.14912 0.51495,-0.14912 0.67375,0 0.75819,0.71194 -0.56111,4.85166 0,6.95923 0.284,1.06669 1.34751,1.76561 1.34751,2.53063 0,0.006 0.56625,1.79702 0.67376,1.89796 0.1588,0.14913 0.51494,-0.14911 0.67375,0 0.33687,0.31633 -0.33688,1.58165 0,1.89798 0.1588,0.14911 0.51495,-0.14912 0.67375,0 0.58699,0.55118 -0.20425,5.31033 0.67376,6.95923 0.13983,0.26261 1.78608,-0.22084 2.02125,0 0.33688,0.31632 0.33688,0.94898 0.67376,1.26531 0.15881,0.14912 0.51495,-0.14912 0.67375,0 0.31761,0.29823 -0.31761,0.96708 0,1.26532 0.31761,0.29822 1.0299,-0.29824 1.34751,0 0.31761,0.29822 -0.31761,0.96705 0,1.26531 0.71087,0.66752 1.33844,0.61565 2.02126,1.89798 0.10043,0.1886 0.15881,0.78176 0,0.63263 -0.3551,-0.33341 -0.67376,-1.73685 -0.67376,-1.26531 0,0.66688 0.50151,1.251 0.67376,1.89799 0.0898,0.33743 -0.24704,1.666 0,1.89798 0.15881,0.14908 0.51494,-0.14913 0.67375,0 0.44917,0.42174 -0.44917,2.10883 0,2.53061 0.1588,0.14914 0.51495,-0.14913 0.67376,0 0.31761,0.29822 0,1.6871 0,1.26531 0,-0.42178 0,-1.68709 0,-1.26531 0,0.63268 0.21305,1.2978 0,1.89799 -0.071,0.20005 -0.67376,0.21089 -0.67376,0 0,-0.21089 0.83256,-0.14913 0.67376,0 -0.46129,0.43313 -3.39791,1.87062 -2.02127,3.16329 0.15881,0.14908 0.51496,-0.14913 0.67376,0 0.31761,0.29821 -0.31761,0.96704 0,1.2653 0.68684,0.64493 1.31344,-0.69664 2.02126,0.63263 0.27755,0.52126 0.27331,0.88932 0.67375,1.26536 0.31761,0.29821 1.0299,-0.29826 1.34751,0 0.4417,0.41475 0.3362,2.21362 0.67375,2.53061 0.33688,0.31634 1.68438,-0.31634 2.02126,0 0.15881,0.14913 -0.1588,0.48355 0,0.63263 0.69039,0.64829 4.20217,0.48274 4.71628,0 0.83583,-0.78482 0.29253,-3.16324 0.67375,-3.16324 0.22458,0 -0.22459,0.63263 0,0.63263 0.31761,0 0.37244,-0.53833 0.67375,-0.63263 1.94566,-0.60903 12.67841,0.74801 13.47507,0 0.1588,-0.14913 -0.15881,-0.48355 0,-0.63268 0.33687,-0.31634 1.68438,0.31634 2.02126,0 0.37466,-0.35179 1.08753,-1.45958 2.02125,-1.89798 0.40176,-0.1886 1.0299,0.29826 1.34751,0 0.15881,-0.14914 -0.1588,-0.48355 0,-0.63263 0.44917,-0.42179 1.57209,-0.21089 2.02126,-0.63268 0.45358,-0.4259 0.35537,-0.79948 1.34751,-1.26531 0.40175,-0.18864 1.0299,0.29822 1.34751,0 0.1588,-0.14913 -0.15881,-0.48354 0,-0.63267 0.75629,-0.71016 2.70524,-1.28454 3.36876,-2.53062 0.52076,-0.97799 0.77521,-1.99323 1.34751,-2.53061 1.39402,-1.30899 -0.0545,2.00027 1.34751,-0.63268 0.43977,-0.82589 2.01079,-2.52082 2.69501,-3.16329 0.31761,-0.29821 1.0299,0.29827 1.34751,0 0.55912,-0.52502 1.13349,-2.96231 1.3475,-3.16328 0.15881,-0.14911 0.51495,0.14913 0.67375,0 0.49102,-0.46106 0.68298,-1.90662 1.34751,-2.53062 0.84701,-0.79535 2.57831,-1.78838 3.36877,-2.53063 0.33688,-0.31633 -0.33688,-1.58164 0,-1.89797 0.1588,-0.14912 0.51495,0.14912 0.67375,0 0.72265,-0.67857 -0.68555,-7.56974 0,-8.8572 1.2037,-2.26057 6.55572,-1.55653 8.75879,-5.69391 0.89391,-1.67877 0,-10.29279 0,-12.65315 0,-1.39282 -2.46417,-1.48206 -1.3475,-2.53062 0.33687,-0.31633 1.01063,-0.31633 1.3475,-0.63266 0.15881,-0.14912 -0.1588,-0.48354 0,-0.63265 0.33755,-0.31697 2.25332,-0.21791 2.69502,-0.63266 0.56146,-0.52722 0.78604,-1.37076 1.3475,-1.89798 0.31761,-0.29823 1.0299,0.29824 1.34751,0 1.39402,-1.30898 -2.13025,0.0512 0.67375,-1.26531 0.40175,-0.18862 1.0299,0.29824 1.34751,0 1.58007,-1.48369 -2.07575,0 -0.67375,0 1.54337,0 2.52591,-2.37184 3.36876,-3.16328 0.22459,-0.21089 1.79668,-0.42177 2.02127,-0.63266 0.56145,-0.52722 0.78604,-1.37076 1.3475,-1.89797 1.64719,-1.54672 3.68546,-2.828 5.39003,-4.4286 0.31761,-0.29824 -0.31761,-0.96708 0,-1.26532 1.04884,-0.98486 2.49918,-1.53019 3.36876,-3.16328 1.40184,-2.63266 -1.80511,-4.22564 -2.69501,-5.06125 -0.33687,-0.31633 0.33687,-1.58165 0,-1.89798 -0.15881,-0.14911 -0.51495,0.14912 -0.67375,0 -0.97185,-0.91256 0.6393,-4.49328 0,-5.69391 -0.33441,-0.62801 -0.60025,-2.4616 -0.67376,-2.53063 -0.1588,-0.14912 -0.51494,0.14912 -0.67375,0 -0.75533,-0.70926 0.4968,-3.49561 0,-4.4286 -0.46425,-0.87186 -1.58013,-0.85109 -2.02126,-1.26531 -0.67375,-0.63266 0.67375,-3.16328 0,-3.79594 -0.15881,-0.14912 -0.51495,0.14911 -0.67375,0 -0.67376,-0.63266 0.67375,-3.16329 0,-3.79594 -0.15881,-0.14913 -0.51495,0.14911 -0.67376,0 -0.33687,-0.31633 0.33688,-1.58165 0,-1.89798 -0.1588,-0.14911 -0.51494,0.14912 -0.67375,0 -0.12,-0.11268 -0.83665,-4.75532 -0.67376,-5.06125 0.36476,-0.68502 2.27059,-2.76475 2.69502,-3.16329 0.31761,-0.29823 1.02989,0.29824 1.34751,0 0.33687,-0.31633 -0.33688,-1.58164 0,-1.89797 0.31761,-0.29823 1.02989,0.29824 1.3475,0 0.56146,-0.52721 0.78605,-1.37075 1.34751,-1.89797 0.1588,-0.14912 0.51495,0.14912 0.67375,0 0.31761,-0.29824 -0.31761,-0.96707 0,-1.26531 0.78605,-0.73811 1.90897,-1.15988 2.69502,-1.89797 0.67375,-0.63266 0,-2.53063 0.67375,-3.16329 0.78604,-0.7381 1.90896,-1.15987 2.69501,-1.89797 0.31762,-0.29824 -0.31761,-0.96708 0,-1.26531 0.15881,-0.14912 0.51495,0.14912 0.67375,0 0.66454,-0.62401 0.8565,-2.06957 1.34751,-2.53063 1.20677,-1.13316 3.91379,-1.20488 5.39003,-1.89798 0.56816,-0.26674 0.77935,-0.99856 1.34751,-1.26531 1.65262,-0.77591 3.19164,0.16632 4.71627,-1.26531 0.31761,-0.29824 -0.20088,-0.88807 0,-1.26531 0.46686,-0.87677 1.6466,-1.54617 2.02126,-1.89798 0.224,-0.21034 -0.22401,-1.05497 0,-1.26531 0.41393,-0.38869 1.57006,-0.41796 2.02126,-1.26531 0.2034,-0.38199 -0.31145,-1.60552 0,-1.89798 0.1588,-0.14911 0.51495,0.14912 0.67375,0 0.31761,-0.29824 -0.31761,-0.96707 0,-1.26531 0.45358,-0.42591 0.85144,-0.33369 1.34751,-1.26531 0.47662,-0.8951 -0.0775,-3.09051 0.67375,-3.79595 0.56146,-0.52721 1.4598,-0.7381 2.02126,-1.26531 0.31146,-0.29246 -0.20339,-1.51599 0,-1.89797 0.49607,-0.93163 0.89393,-0.8394 1.34751,-1.26531 0.224,-0.21034 -0.224,-1.05498 0,-1.26532 0.1588,-0.14912 0.51495,0.14912 0.67375,0 0.33688,-0.31633 -0.33687,-1.58164 0,-1.89797 0.15881,-0.14912 0.51495,0.14912 0.67375,0 0.46682,-0.43834 0.20694,-2.72494 0.67376,-3.16328 0.1588,-0.14912 0.51495,0.14911 0.67375,0 0.0431,-0.0405 1.30434,-3.75541 1.34751,-3.79595 0.1588,-0.14912 0.51495,0.14912 0.67375,0 0.33688,-0.31633 -0.33687,-1.58164 0,-1.89797 0.15881,-0.14912 0.51495,0.14912 0.67375,0 0.3909,-0.36705 0.67376,-5.64534 0.67376,-6.95922 0,-0.63266 -0.67376,-1.89798 0,-1.89798 0.22458,0 0.22458,0.63266 0,0.63266 -0.54857,0 -3.14881,-1.47186 -4.04252,-0.63266 -0.15881,0.14912 0.1588,0.48354 0,0.63266 -0.31761,0.29824 -1.0299,-0.29824 -1.34751,0 -0.1588,0.14912 0.15881,0.48354 0,0.63266 -0.31761,0.29824 -1.0299,-0.29824 -1.34751,0 -0.31761,0.29824 0.31761,0.96707 0,1.26531 -0.31761,0.29824 -0.94575,-0.18862 -1.3475,0 -0.56816,0.26675 -0.77935,0.99856 -1.34751,1.26532 -0.94341,0.44293 -16.48947,1.59806 -16.84383,1.26531 -0.22459,-0.21089 -0.44917,-1.68708 -0.67375,-1.89797 -0.15881,-0.14912 -0.51495,0.14912 -0.67376,0 -1.12292,-1.05443 0.44917,-3.37417 -0.67375,-4.4286 -0.1588,-0.14912 -0.51495,0.14912 -0.67376,0 -0.49101,-0.46106 -0.009,-2.53928 -0.67375,-3.16329 -2.00598,-1.88362 -4.62919,-2.44885 -6.73753,-4.42859 -0.31761,-0.29824 0.31761,-0.96708 0,-1.26532 -0.33687,-0.31633 -1.01063,-0.31633 -1.34751,-0.63266 -0.31761,-0.29823 0.31761,-0.96707 0,-1.26531 -1.66146,-1.56012 -3.89241,-3.02233 -5.39003,-4.4286 -0.31761,-0.29824 0.31761,-0.96707 0,-1.26531 -0.45357,-0.42592 -0.85143,-0.33369 -1.3475,-1.26532 -0.2034,-0.38198 0.31145,-1.60551 0,-1.89797 -0.33688,-0.31632 -1.01063,-0.31632 -1.34751,-0.63265 -0.56146,-0.52722 -0.11229,-2.00342 -0.67375,-2.53063 -0.1588,-0.14912 -0.51495,0.14912 -0.67375,0 -0.44917,-0.42178 -0.22459,-1.4762 -0.67376,-1.89797 -0.1588,-0.14912 -0.51495,0.14912 -0.67375,0 -0.46681,-0.43834 -0.20694,-2.72495 -0.67375,-3.16329 -0.15881,-0.14912 -0.51495,0.14912 -0.67376,0 -0.56146,-0.52722 0.56147,-2.63607 0,-3.16328 -0.1588,-0.14912 -0.51494,0.14911 -0.67375,0 -1.01063,-0.94899 1.01063,-4.74493 0,-5.69392 -0.44113,-0.41422 -1.55701,-0.39345 -2.02126,-1.26531 -0.52075,-0.97799 -0.77521,-1.99324 -1.3475,-2.53063 -0.56147,-0.52721 -2.13356,-0.10544 -2.69502,-0.63266 -0.44113,-0.41422 -0.419,-1.46203 -1.3475,-1.89797 -0.20088,-0.0943 -0.51496,0.14912 -0.67376,0 -0.26939,-0.25296 -1.33592,-5.68304 -1.34751,-5.69391 -0.1588,-0.14912 -0.51494,0.14912 -0.67375,0 -0.53776,-0.50496 0.35343,-2.49954 0,-3.16329 -0.51389,-0.96508 -1.51884,-1.58707 -2.02126,-2.53062 -0.20087,-0.37725 0.31761,-0.96708 0,-1.26532 -0.33688,-0.31632 -1.01063,-0.31632 -1.34751,-0.63265 -0.44917,-0.42178 0.44918,-2.10886 0,-2.53063 -0.33687,-0.31633 -1.01062,-0.31633 -1.3475,-0.63266 -0.31761,-0.29824 0.31761,-0.96708 0,-1.26531 -0.31761,-0.29824 -1.0299,0.29823 -1.34751,0 -0.56146,-0.52722 -0.78604,-1.37076 -1.3475,-1.89797 -0.15881,-0.14912 -0.51495,0.14911 -0.67376,0 -2.95767,-3.86253 -0.63637,-0.93195 -2.24455,-4.41397 0.80373,-1.54092 1.37614,-0.71203 -0.14432,-2.51138 -5.16228,-2.04022 -5.26206,0.10868 -11.08619,-0.0339 -0.85694,0 -4.84459,0.51217 -5.39003,0 -0.1588,-0.14912 0.15881,-0.48354 0,-0.63265 -0.31761,-0.29824 -0.94576,0.18862 -1.3475,0 -0.56816,-0.26676 -0.77935,-0.99857 -1.34751,-1.26532 -0.5687,-0.267 -4.14758,-0.267 -4.71628,0 -0.32938,0.15465 -1.38885,1.22649 -2.02126,0.63266 -0.22422,-0.21055 0.22423,-1.05477 0,-1.26532 -0.74456,-0.69914 -2.35026,-2.05244 -3.36876,-2.53062 -0.56096,-0.26337 -2.26765,0.4013 -2.69501,0 -0.15881,-0.14912 0.1588,-0.48354 0,-0.63266 -0.18219,-0.17107 -2.25099,-0.63266 -2.69502,-0.63266 -4.38352,0 -5.16218,-0.21394 -7.41128,1.89797 -0.51206,0.48083 0.67375,3.71796 0.67375,3.79595 0,0.2605 -0.17835,1.7305 0,1.89797 0.22458,0.21088 0.99136,0.63265 0.67375,0.63265 -0.22458,0 0,-0.84354 0,-0.63265 0,0.66738 -0.57699,3.8868 -2.02126,2.53063 -0.15881,-0.14912 0.15881,-0.48354 0,-0.63266 -0.31761,-0.29824 -0.94576,0.18862 -1.34751,0 -0.99214,-0.46581 -0.89392,-0.8394 -1.3475,-1.26532 -0.93587,-0.87878 -8.0633,0.0204 -8.75879,-0.63265 -1.61057,-1.51233 0.10291,-5.59728 -0.67376,-6.32657 -0.75533,-0.70926 -3.72268,0.46649 -4.71627,0 -1.32981,-0.62435 -7.82515,-0.38862 -8.08504,-0.63266 -0.56364,-0.52926 -1.38432,-1.93254 -2.02126,-2.53063 -0.9449,-0.88726 -4.0703,-0.65874 -4.71627,-1.26531 -0.52669,-0.49457 0.58604,-1.1006 0.67375,-1.26532 0.2034,-0.38198 -0.31145,-1.60551 0,-1.89796 0.95981,-0.90127 3.44583,-0.77739 4.04252,-1.89798 0.10365,-0.19466 0.10365,-1.7033 0,-1.89797 -0.22458,-0.42177 -0.31866,-0.93187 -0.67375,-1.26531 -1.03485,-0.97173 -1.40916,1.20742 -2.02126,0.63265 -0.0674,-0.0633 -0.0674,-1.8347 0,-1.89796 0.33687,-0.31633 1.01063,-0.31633 1.3475,-0.63266 0.14864,-0.13957 -0.11389,-2.53063 0,-2.53063 0.22459,0 0.22459,0.63265 0,0.63265 -0.0541,0 -1.88093,-0.63265 -2.69501,-0.63265 -1.834,0 -5.44968,-0.57665 -6.73753,0.63265 -0.15881,0.14912 0.1588,0.48355 0,0.63266 -0.33688,0.31633 -1.68439,-0.31633 -2.02126,0 -0.15881,0.14912 0.1588,0.48354 0,0.63266 -0.57529,0.54019 -4.56119,-0.63266 -5.39003,-0.63266 -1.79667,0 0.22458,-0.21089 -0.67375,0.63266 -0.634,0.59532 -12.95992,-1.50718 -16.17008,0 -0.56096,0.26337 -2.26764,-0.4013 -2.69502,0 -1.95565,1.83637 -1.41741,2.02926 -2.02125,3.16328 -0.20088,0.37725 -0.89834,0 -1.34751,0 -1.58007,0 0.31761,-0.14912 -1.34751,0.63266 -2.15601,1.01225 -5.92903,-1.01225 -8.08504,0 -1.38334,0.64948 -0.82786,0.63266 -2.69501,0.63266 -0.87067,0 -3.33182,-0.66735 -3.36877,-0.63266 -0.89212,0.8377 -1.3475,1.42211 -1.3475,3.16329 0,0.21088 0,0.84354 0,0.63266 0,-2.8235 -0.93642,0.87929 -1.34751,1.26531 -0.56146,0.52721 -2.13355,0.10544 -2.69501,0.63265 -0.67376,0.63266 0,2.53063 -0.67376,3.16329 -0.57514,0.54006 -4.04251,0.65743 -4.04251,0.63266 0,-0.21089 0.67375,-0.21089 0.67375,0 0,0.59647 -1.06343,0.7318 -1.34751,1.26531 -0.10044,0.18862 0.1588,0.48354 0,0.63266 -0.22801,0.2141 -1.11949,-0.21411 -1.34751,0 -0.94562,0.88794 0.82201,0.98688 0,2.53062 -1.5448,2.90116 0,-2.16019 0,-0.63265 0,0.94311 -1.34751,1.58751 -1.34751,2.53063 0,0.21088 0.51496,-0.14912 0.67376,0 0.52669,0.49456 -0.58605,1.1006 -0.67376,1.26531 -0.35933,0.67483 0.35934,1.85579 0,2.53063 -0.16157,0.30344 -1.18592,0.96187 -1.3475,1.26531 -1.02328,1.92173 1.11621,-0.19828 0,1.89797 -0.10043,0.18862 -0.51495,-0.14912 -0.67375,0 -1.23522,1.15987 -2.13356,2.63607 -3.36877,3.79595 -1.12292,1.05443 -3.59335,-0.42178 -4.71627,0.63265 -0.44917,0.42178 0.44917,2.10886 0,2.53063 -0.49102,0.46106 -2.03048,0.64131 -2.69502,1.26531 -0.22471,0.21101 0.22472,1.05431 0,1.26532 -0.31761,0.29824 -1.02989,-0.29824 -1.3475,0 -0.73491,0.69008 -0.11307,2.90004 -2.02126,3.79594 -0.36447,0.17112 -0.98304,-0.17112 -1.34751,0 -2.804,1.31648 0.72026,-0.0437 -0.67375,1.26531 -0.39051,0.36669 -2.30451,0.89863 -2.69502,1.26532 -0.224,0.21034 0.22401,1.05497 0,1.26531 -0.1588,0.14912 -0.51494,-0.14912 -0.67375,0 -1.18808,1.11562 0.7816,5.49138 0,6.95923 -0.79196,1.4873 -0.209,5.89016 -0.67375,6.32657 -0.15881,0.14912 -0.51495,-0.14912 -0.67376,0 -0.22422,0.21055 0.22423,1.05477 0,1.26531 -0.1588,0.14912 -0.51494,-0.14911 -0.67375,0 -1.19508,1.12219 -0.67375,10.04748 -0.67375,13.2858 0,0.86126 0.0989,8.76436 0,8.8572 -1.9003,1.78439 -3.36877,1.67344 -3.36877,4.4286 0,3.91065 2.59282,4.23668 4.04252,6.95923 0.20417,0.38342 0.39142,1.63286 0.67375,1.89797 0.29529,0.27727 1.07094,-0.89236 2.02126,0 0.28805,0.27047 0.5145,1.59888 0.67376,1.89797 0.47358,0.88939 3.13658,2.09458 3.36876,2.53063 0.2034,0.38198 -0.31145,1.60551 0,1.89796 0.15881,0.14913 0.51495,-0.14911 0.67376,0 0.28233,0.26512 0.46958,1.51455 0.67375,1.89798 0.22459,0.42177 1.17594,1.26531 0.67376,1.26531 -0.22459,0 -0.22459,-0.63265 0,-0.63265 0.31761,0 0.53171,0.3659 0.67375,0.63265 0.20087,0.37725 -0.31761,0.96708 0,1.26532 0.1588,0.14912 0.51495,-0.14912 0.67375,0 0.67375,0.63265 -0.67375,3.16328 0,3.79594 0.15881,0.14911 0.51495,-0.14912 0.67375,0 0.44917,0.42177 0.22459,1.4762 0.67376,1.89797 0.31761,0.29823 1.0299,-0.29824 1.34751,0 1.39401,1.30899 -2.13025,-0.0512 0.67375,1.26531 0.83837,0.39362 6.95965,1.47389 7.41128,1.89797 0.15881,0.14912 -0.1588,0.48354 0,0.63266 0.31761,0.29824 1.0299,-0.29824 1.34751,0 0.44917,0.42177 0.22458,1.4762 0.67376,1.89797 1.21744,1.14319 3.36876,1.44781 3.36876,3.79594 0,0.21089 0.22458,0.63266 0,0.63266 -0.22458,0 -0.22458,-0.63266 0,-0.63266 0.31761,0 0.38967,0.49929 0.67376,0.63266 1.01589,0.47696 4.05889,0.63266 5.39002,0.63266 0.44917,0 0.94576,0.18862 1.34751,0 0.56816,-0.26675 0.89833,-1.68709 1.3475,-1.26532 0.22459,0.21089 -0.99136,0.63266 -0.67375,0.63266 0.7102,0 1.51907,-0.1611 2.02126,-0.63266 0.1588,-0.14911 -0.15881,-0.48353 0,-0.63265 0.56146,-0.52722 2.8073,0.52721 3.36877,0 0.1588,-0.14912 -0.15881,-0.48354 0,-0.63266 0.31761,-0.29824 0.94575,0.18862 1.3475,0 0.63522,-0.29824 1.51908,-0.1611 2.02126,-0.63266 0.15881,-0.14911 -0.1588,-0.48353 0,-0.63265 0.33688,-0.31633 1.68438,0.31632 2.02126,0 0.15881,-0.14912 -0.1588,-0.48354 0,-0.63266 0.1838,-0.17259 15.19732,0 16.84383,0 2.81318,0 -4.25104,0.1958 -0.67375,-3.16329 0.8552,-0.80303 2.18283,1.0426 3.36877,1.26532 0.44045,0.0827 0.44045,-1.1826 0,-1.26532 -1.10112,-0.20679 -3.36877,1.05443 -3.36877,0 0,-1.05443 2.24585,0 2.69502,0 z"
     id="path2972"
     sodipodi:nodetypes="csssssssssssssssssssssssssssssssssssssssssssssssssssssssssssssssssssssssssssssssssssssssssssssssssssssssssssssssssssssssssssssssssssssssssssssssssssssssssssssssssssssssssssssssssssssssssssssssssssssssssssssssssssssssssssssssssssssssssssssssssssssssssssssssccccssssssssssssssssssssssssssssssssssssssssssssssssssssssssssssssssssssssssssssssssssssssssssssssssssssssssssssssssssssssssssssssssssssssc" />
</svg>
